G75*
G70*
%OFA0B0*%
%FSLAX24Y24*%
%IPPOS*%
%LPD*%
%AMOC8*
5,1,8,0,0,1.08239X$1,22.5*
%
%ADD10C,0.0060*%
%ADD11C,0.0080*%
%ADD12C,0.0040*%
%ADD13R,0.0118X0.0059*%
%ADD14R,0.0118X0.0118*%
%ADD15C,0.0050*%
D10*
X001075Y003156D02*
X000825Y003406D01*
X000825Y003906D01*
X001075Y004156D01*
X000825Y004406D01*
X000825Y004906D01*
X001075Y005156D01*
X000825Y005406D01*
X000825Y005906D01*
X001075Y006156D01*
X000825Y006406D01*
X000825Y006906D01*
X001075Y007156D01*
X000825Y007406D01*
X000825Y007906D01*
X001075Y008156D01*
X001575Y008156D01*
X001825Y007906D01*
X001825Y007406D01*
X001575Y007156D01*
X001825Y006906D01*
X001825Y006406D01*
X001575Y006156D01*
X001075Y006156D01*
X001575Y006156D02*
X001825Y005906D01*
X001825Y005406D01*
X001575Y005156D01*
X001825Y004906D01*
X001825Y004406D01*
X001575Y004156D01*
X001825Y003906D01*
X001825Y003406D01*
X001575Y003156D01*
X001075Y003156D01*
X001075Y004156D02*
X001575Y004156D01*
X001575Y005156D02*
X001075Y005156D01*
X001075Y007156D02*
X001575Y007156D01*
X001575Y012636D02*
X001075Y012636D01*
X000825Y012886D01*
X000825Y013386D01*
X001075Y013636D01*
X001575Y013636D01*
X001825Y013386D01*
X001825Y012886D01*
X001575Y012636D01*
X002943Y015135D02*
X002943Y015562D01*
X002730Y015348D02*
X003157Y015348D01*
X002943Y016316D02*
X002943Y016743D01*
X014824Y013206D02*
X017748Y013206D01*
X017748Y006256D01*
X014824Y006256D01*
X014824Y013206D01*
X014836Y012836D02*
X014838Y012865D01*
X014844Y012893D01*
X014853Y012920D01*
X014867Y012945D01*
X014883Y012969D01*
X014903Y012989D01*
X014925Y013008D01*
X014949Y013022D01*
X014976Y013034D01*
X015003Y013042D01*
X015032Y013046D01*
X015060Y013046D01*
X015089Y013042D01*
X015116Y013034D01*
X015143Y013022D01*
X015167Y013008D01*
X015189Y012989D01*
X015209Y012969D01*
X015225Y012945D01*
X015239Y012920D01*
X015248Y012893D01*
X015254Y012865D01*
X015256Y012836D01*
X015254Y012807D01*
X015248Y012779D01*
X015239Y012752D01*
X015225Y012727D01*
X015209Y012703D01*
X015189Y012683D01*
X015167Y012664D01*
X015143Y012650D01*
X015116Y012638D01*
X015089Y012630D01*
X015060Y012626D01*
X015032Y012626D01*
X015003Y012630D01*
X014976Y012638D01*
X014949Y012650D01*
X014925Y012664D01*
X014903Y012683D01*
X014883Y012703D01*
X014867Y012727D01*
X014853Y012752D01*
X014844Y012779D01*
X014838Y012807D01*
X014836Y012836D01*
X023492Y012216D02*
X023492Y007766D01*
X026392Y007766D01*
X026392Y012216D01*
X023492Y012216D01*
X023642Y011826D02*
X023644Y011855D01*
X023650Y011883D01*
X023659Y011910D01*
X023673Y011935D01*
X023689Y011959D01*
X023709Y011979D01*
X023731Y011998D01*
X023755Y012012D01*
X023782Y012024D01*
X023809Y012032D01*
X023838Y012036D01*
X023866Y012036D01*
X023895Y012032D01*
X023922Y012024D01*
X023949Y012012D01*
X023973Y011998D01*
X023995Y011979D01*
X024015Y011959D01*
X024031Y011935D01*
X024045Y011910D01*
X024054Y011883D01*
X024060Y011855D01*
X024062Y011826D01*
X024060Y011797D01*
X024054Y011769D01*
X024045Y011742D01*
X024031Y011717D01*
X024015Y011693D01*
X023995Y011673D01*
X023973Y011654D01*
X023949Y011640D01*
X023922Y011628D01*
X023895Y011620D01*
X023866Y011616D01*
X023838Y011616D01*
X023809Y011620D01*
X023782Y011628D01*
X023755Y011640D01*
X023731Y011654D01*
X023709Y011673D01*
X023689Y011693D01*
X023673Y011717D01*
X023659Y011742D01*
X023650Y011769D01*
X023644Y011797D01*
X023642Y011826D01*
D11*
X029171Y011725D02*
X029171Y011225D01*
X029421Y010975D01*
X029171Y010725D01*
X029171Y010225D01*
X029421Y009975D01*
X029171Y009725D01*
X029171Y009225D01*
X029421Y008975D01*
X029171Y008725D01*
X029171Y008225D01*
X029421Y007975D01*
X029171Y007725D01*
X029171Y007225D01*
X029421Y006975D01*
X029171Y006725D01*
X029171Y006225D01*
X029421Y005975D01*
X029171Y005725D01*
X029171Y005225D01*
X029421Y004975D01*
X029171Y004725D01*
X029171Y004225D01*
X029421Y003975D01*
X029921Y003975D01*
X030171Y004225D01*
X030171Y004725D01*
X029921Y004975D01*
X030171Y005225D01*
X030171Y005725D01*
X029921Y005975D01*
X030171Y006225D01*
X030171Y006725D01*
X029921Y006975D01*
X030171Y007225D01*
X030171Y007725D01*
X029921Y007975D01*
X030171Y008225D01*
X030171Y008725D01*
X029921Y008975D01*
X030171Y009225D01*
X030171Y009725D01*
X029921Y009975D01*
X030171Y010225D01*
X030171Y010725D01*
X029921Y010975D01*
X030171Y011225D01*
X030171Y011725D01*
X029921Y011975D01*
X029421Y011975D01*
X029171Y011725D01*
X010384Y013132D02*
X004085Y013132D01*
X008022Y010632D02*
X009282Y010632D01*
X009282Y008664D01*
X008022Y008664D01*
X008022Y010632D01*
X007628Y009392D02*
X006250Y009392D01*
X006250Y008014D01*
X007628Y008014D01*
X007628Y009392D01*
X010384Y006833D02*
X004085Y006833D01*
X006728Y003994D02*
X009308Y003994D01*
X009308Y002594D01*
X006728Y002594D01*
X006728Y003994D01*
X006728Y015979D02*
X006728Y017379D01*
X009308Y017379D01*
X009308Y015979D01*
X006728Y015979D01*
D12*
X006772Y015280D02*
X006772Y014999D01*
X006679Y014999D02*
X006865Y014999D01*
X006679Y015186D02*
X006772Y015280D01*
X007530Y015229D02*
X007577Y015276D01*
X007670Y015276D01*
X007717Y015229D01*
X007717Y015182D01*
X007530Y014996D01*
X007717Y014996D01*
X008440Y015046D02*
X008487Y014999D01*
X008580Y014999D01*
X008627Y015046D01*
X008627Y015093D01*
X008580Y015139D01*
X008533Y015139D01*
X008580Y015139D02*
X008627Y015186D01*
X008627Y015233D01*
X008580Y015280D01*
X008487Y015280D01*
X008440Y015233D01*
X008928Y017699D02*
X008928Y017980D01*
X008788Y017839D01*
X008975Y017839D01*
X009196Y004974D02*
X009196Y004694D01*
X009103Y004694D02*
X009289Y004694D01*
X009103Y004880D02*
X009196Y004974D01*
X008438Y004931D02*
X008391Y004977D01*
X008298Y004977D01*
X008251Y004931D01*
X008438Y004931D02*
X008438Y004884D01*
X008251Y004697D01*
X008438Y004697D01*
X007528Y004740D02*
X007481Y004694D01*
X007388Y004694D01*
X007341Y004740D01*
X007435Y004834D02*
X007481Y004834D01*
X007528Y004787D01*
X007528Y004740D01*
X007481Y004834D02*
X007528Y004880D01*
X007528Y004927D01*
X007481Y004974D01*
X007388Y004974D01*
X007341Y004927D01*
X007133Y002274D02*
X006993Y002134D01*
X007180Y002134D01*
X007133Y001994D02*
X007133Y002274D01*
D13*
X001660Y009356D03*
X001660Y009829D03*
D14*
X001660Y009593D03*
D15*
X006787Y008855D02*
X006875Y008855D01*
X006831Y008855D02*
X006831Y008590D01*
X006787Y008590D02*
X006875Y008590D01*
X006980Y008634D02*
X007025Y008590D01*
X007113Y008590D01*
X007157Y008634D01*
X006980Y008634D02*
X006980Y008811D01*
X007025Y008855D01*
X007113Y008855D01*
X007157Y008811D01*
X008519Y008871D02*
X008563Y008826D01*
X008740Y008826D01*
X008784Y008871D01*
X008784Y008959D01*
X008740Y009003D01*
X008696Y009116D02*
X008607Y009205D01*
X008607Y009249D01*
X008607Y009358D02*
X008740Y009358D01*
X008784Y009402D01*
X008784Y009535D01*
X008828Y009535D02*
X008873Y009491D01*
X008873Y009446D01*
X008828Y009535D02*
X008607Y009535D01*
X008652Y009648D02*
X008607Y009692D01*
X008607Y009825D01*
X008696Y009781D02*
X008696Y009692D01*
X008652Y009648D01*
X008784Y009648D02*
X008784Y009781D01*
X008740Y009825D01*
X008696Y009781D01*
X008607Y009938D02*
X008607Y010026D01*
X008563Y009982D02*
X008740Y009982D01*
X008784Y010026D01*
X008740Y010131D02*
X008696Y010176D01*
X008696Y010308D01*
X008652Y010308D02*
X008784Y010308D01*
X008784Y010176D01*
X008740Y010131D01*
X008607Y010176D02*
X008607Y010264D01*
X008652Y010308D01*
X008784Y010421D02*
X008784Y010510D01*
X008784Y010466D02*
X008519Y010466D01*
X008519Y010421D01*
X008607Y009116D02*
X008784Y009116D01*
X008563Y009003D02*
X008519Y008959D01*
X008519Y008871D01*
X002325Y014998D02*
X000125Y014998D01*
X000125Y016998D01*
X002325Y016998D01*
X002325Y016498D01*
X001825Y016498D01*
X001825Y015498D01*
X002325Y015498D01*
X002325Y014998D01*
X002325Y015498D02*
X002325Y016498D01*
X014211Y017648D02*
X014211Y019848D01*
X018211Y019848D01*
X018211Y017648D01*
X017711Y017648D01*
X017711Y018148D01*
X014711Y018148D01*
X014711Y017648D01*
X014211Y017648D01*
X014711Y017648D02*
X017711Y017648D01*
X017860Y002325D02*
X014860Y002325D01*
X014860Y001825D01*
X017860Y001825D01*
X017860Y002325D01*
X018360Y002325D01*
X018360Y000125D01*
X014360Y000125D01*
X014360Y002325D01*
X014860Y002325D01*
M02*
