G75*
G70*
%OFA0B0*%
%FSLAX24Y24*%
%IPPOS*%
%LPD*%
%AMOC8*
5,1,8,0,0,1.08239X$1,22.5*
%
%ADD10C,0.0060*%
%ADD11C,0.0050*%
D10*
X004682Y002320D02*
X004682Y003490D01*
X005842Y003490D02*
X005842Y002320D01*
X004230Y008549D02*
X004230Y011473D01*
X010195Y011473D01*
X010195Y008549D01*
X004230Y008549D01*
X009615Y008771D02*
X009617Y008800D01*
X009623Y008828D01*
X009632Y008855D01*
X009646Y008880D01*
X009662Y008904D01*
X009682Y008924D01*
X009704Y008943D01*
X009728Y008957D01*
X009755Y008969D01*
X009782Y008977D01*
X009811Y008981D01*
X009839Y008981D01*
X009868Y008977D01*
X009895Y008969D01*
X009922Y008957D01*
X009946Y008943D01*
X009968Y008924D01*
X009988Y008904D01*
X010004Y008880D01*
X010018Y008855D01*
X010027Y008828D01*
X010033Y008800D01*
X010035Y008771D01*
X010033Y008742D01*
X010027Y008714D01*
X010018Y008687D01*
X010004Y008662D01*
X009988Y008638D01*
X009968Y008618D01*
X009946Y008599D01*
X009922Y008585D01*
X009895Y008573D01*
X009868Y008565D01*
X009839Y008561D01*
X009811Y008561D01*
X009782Y008565D01*
X009755Y008573D01*
X009728Y008585D01*
X009704Y008599D01*
X009682Y008618D01*
X009662Y008638D01*
X009646Y008662D01*
X009632Y008687D01*
X009623Y008714D01*
X009617Y008742D01*
X009615Y008771D01*
X005842Y016483D02*
X005842Y017653D01*
X004682Y017653D02*
X004682Y016483D01*
X021952Y011473D02*
X021952Y008549D01*
X027917Y008549D01*
X027917Y011473D01*
X021952Y011473D01*
X027337Y008771D02*
X027339Y008800D01*
X027345Y008828D01*
X027354Y008855D01*
X027368Y008880D01*
X027384Y008904D01*
X027404Y008924D01*
X027426Y008943D01*
X027450Y008957D01*
X027477Y008969D01*
X027504Y008977D01*
X027533Y008981D01*
X027561Y008981D01*
X027590Y008977D01*
X027617Y008969D01*
X027644Y008957D01*
X027668Y008943D01*
X027690Y008924D01*
X027710Y008904D01*
X027726Y008880D01*
X027740Y008855D01*
X027749Y008828D01*
X027755Y008800D01*
X027757Y008771D01*
X027755Y008742D01*
X027749Y008714D01*
X027740Y008687D01*
X027726Y008662D01*
X027710Y008638D01*
X027690Y008618D01*
X027668Y008599D01*
X027644Y008585D01*
X027617Y008573D01*
X027590Y008565D01*
X027561Y008561D01*
X027533Y008561D01*
X027504Y008565D01*
X027477Y008573D01*
X027450Y008585D01*
X027426Y008599D01*
X027404Y008618D01*
X027384Y008638D01*
X027368Y008662D01*
X027354Y008687D01*
X027345Y008714D01*
X027339Y008742D01*
X027337Y008771D01*
X027102Y003490D02*
X027102Y002320D01*
X025942Y002320D02*
X025942Y003490D01*
X025942Y016483D02*
X025942Y017653D01*
X027102Y017653D02*
X027102Y016483D01*
D11*
X028671Y016030D02*
X028671Y015530D01*
X029171Y015530D01*
X029171Y013530D01*
X028671Y013530D01*
X028671Y013030D01*
X030871Y013030D01*
X030871Y016030D01*
X028671Y016030D01*
X028671Y015530D02*
X028671Y013530D01*
M02*
