G75*
G70*
%OFA0B0*%
%FSLAX24Y24*%
%IPPOS*%
%LPD*%
%AMOC8*
5,1,8,0,0,1.08239X$1,22.5*
%
%ADD10R,0.0669X0.0256*%
%ADD11R,0.0480X0.0880*%
%ADD12R,0.1417X0.0866*%
%ADD13R,0.0591X0.0512*%
%ADD14R,0.0512X0.0591*%
%ADD15R,0.0472X0.0472*%
%ADD16R,0.0450X0.0300*%
%ADD17R,0.0787X0.0512*%
D10*
X014404Y006486D03*
X014404Y006986D03*
X014404Y007486D03*
X014404Y007986D03*
X014404Y008486D03*
X014404Y008986D03*
X014404Y009486D03*
X014404Y009986D03*
X014404Y010486D03*
X014404Y010986D03*
X014404Y011486D03*
X014404Y011986D03*
X014404Y012486D03*
X014404Y012986D03*
X018168Y012986D03*
X018168Y012486D03*
X018168Y011986D03*
X018168Y011486D03*
X018168Y010986D03*
X018168Y010486D03*
X018168Y009986D03*
X018168Y009486D03*
X018168Y008986D03*
X018168Y008486D03*
X018168Y007986D03*
X018168Y007486D03*
X018168Y006986D03*
X018168Y006486D03*
D11*
X008928Y004514D03*
X008018Y004514D03*
X007108Y004514D03*
X007108Y015459D03*
X008018Y015459D03*
X008928Y015459D03*
D12*
X008018Y017899D03*
X008018Y002073D03*
D13*
X005656Y001738D03*
X005656Y002486D03*
X005656Y003707D03*
X005656Y004455D03*
X010380Y004455D03*
X010380Y003707D03*
X010380Y002486D03*
X010380Y001738D03*
X021404Y001738D03*
X021404Y002486D03*
X024553Y002486D03*
X024553Y001738D03*
X024553Y004101D03*
X024553Y004849D03*
X024553Y015124D03*
X024553Y015872D03*
X024553Y017486D03*
X024553Y018234D03*
X021404Y018234D03*
X021404Y017486D03*
X010380Y017486D03*
X010380Y018234D03*
X010380Y015872D03*
X010380Y015124D03*
X005656Y015518D03*
X005656Y016266D03*
X005656Y017486D03*
X005656Y018234D03*
D14*
X002093Y010774D03*
X001345Y010774D03*
D15*
X001305Y009593D03*
X002132Y009593D03*
D16*
X023062Y009486D03*
X023062Y008986D03*
X023062Y008486D03*
X023062Y007986D03*
X023062Y009986D03*
X023062Y010486D03*
X023062Y010986D03*
X023062Y011486D03*
X023062Y011986D03*
X026832Y011986D03*
X026832Y011486D03*
X026832Y010986D03*
X026832Y010486D03*
X026832Y009986D03*
X026832Y009486D03*
X026832Y008986D03*
X026832Y008486D03*
X026832Y007986D03*
D17*
X010384Y007620D03*
X010384Y008408D03*
X010384Y009195D03*
X010384Y009982D03*
X010384Y010770D03*
X010384Y011557D03*
X010384Y012345D03*
X004085Y012345D03*
X004085Y011557D03*
X004085Y010770D03*
X004085Y009982D03*
X004085Y009195D03*
X004085Y008408D03*
X004085Y007620D03*
M02*
