%
M48
M72
T01C0.0200
T02C0.0400
T03C0.1260
%
T01
X2467Y3136
X5026Y2467
X6089Y1207
X9475Y4475
X9475Y5026
X10341Y5026
X10813Y5892
X11325Y5892
X9829Y5892
X8294Y5380
X8136Y6522
X6797Y6601
X5105Y5892
X6010Y5026
X3766Y6640
X2585Y6837
X3136Y5341
X3372Y8412
X3018Y8805
X2703Y11128
X2270Y11561
X5183Y13372
X3687Y14317
X3254Y13648
X5813Y14790
X6482Y15459
X7782Y14671
X7585Y13608
X9356Y14671
X9947Y14593
X12034Y13490
X12231Y14042
X13294Y13136
X12939Y12191
X11482Y12664
X11089Y12349
X11089Y11482
X11994Y11128
X12939Y10774
X12231Y10341
X13294Y9632
X13648Y9986
X15065Y10183
X15065Y10774
X15734Y11679
X15065Y11994
X16758Y12073
X17506Y12506
X17073Y12939
X18097Y13451
X18608Y13412
X17585Y14120
X17270Y14553
X16482Y14120
X16286Y14632
X16128Y15144
X15577Y13687
X14475Y13569
X14199Y14632
X14199Y16010
X13490Y16601
X11601Y17979
X10813Y16679
X9435Y16049
X5065Y16640
X4396Y17073
X13687Y18333
X14042Y19081
X17270Y16561
X18254Y16994
X18136Y17821
X19868Y16168
X19790Y15656
X19435Y15301
X21837Y14986
X23805Y15459
X24750Y16640
X25459Y17349
X25892Y16640
X25459Y15892
X26561Y15301
X26049Y14553
X25459Y13057
X23451Y12545
X22191Y13412
X20695Y12545
X21049Y11837
X20026Y11482
X20301Y11049
X19278Y10853
X19278Y10144
X19790Y10144
X20656Y10144
X22506Y9671
X23608Y8805
X25538Y8805
X24750Y7427
X23569Y7427
X22467Y7467
X24750Y6246
X25971Y5853
X28097Y6994
X27664Y7427
X26994Y7427
X28530Y7860
X28963Y7427
X27664Y8884
X28530Y9120
X28963Y11837
X28412Y12979
X22034Y16640
X23608Y18254
X25144Y18648
X18884Y12545
X16719Y9868
X15065Y9002
X15301Y8490
X15065Y8018
X15065Y7427
X15931Y6561
X16364Y6207
X15341Y6207
X13530Y6522
X11876Y7624
X12664Y7979
X11601Y9514
X11089Y9514
X17073Y6994
X17545Y6758
X18215Y6049
X17782Y5774
X16719Y4711
X16286Y4435
X15656Y4002
X14278Y3884
X13490Y4711
X15892Y2270
X17427Y3727
X19553Y3372
X19553Y2860
X20459Y4081
X21955Y4514
X22309Y4868
X23963Y4475
X24750Y3530
X25616Y3490
X22821Y3136
X21955Y3057
X22349Y1758
X18845Y6837
X19199Y7191
X19199Y7703
X19553Y8569
X18923Y8648
X17506Y8018
X13057Y1286
X12112Y853
T02
X14860Y1325
X15860Y1325
X16860Y1325
X17860Y1325
X29671Y4475
X29671Y5475
X29671Y6475
X29671Y7475
X29671Y8475
X29671Y9475
X29671Y10475
X29671Y11475
X29671Y13530
X29671Y14530
X29671Y15530
X17711Y18648
X16711Y18648
X15711Y18648
X14711Y18648
X1325Y16498
X1325Y15498
X1325Y13136
X1325Y7656
X1325Y6656
X1325Y5656
X1325Y4656
X1325Y3656
T03
X1719Y1719
X16286Y3294
X29278Y1719
X16286Y16679
X29278Y18254
X1719Y18254
M30
