G75*
G70*
%OFA0B0*%
%FSLAX24Y24*%
%IPPOS*%
%LPD*%
%AMOC8*
5,1,8,0,0,1.08239X$1,22.5*
%
%ADD10C,0.1360*%
%ADD11R,0.0769X0.0356*%
%ADD12C,0.0740*%
%ADD13R,0.0580X0.0980*%
%ADD14R,0.1517X0.0966*%
%ADD15R,0.0691X0.0612*%
%ADD16R,0.0612X0.0691*%
%ADD17R,0.0572X0.0572*%
%ADD18R,0.0550X0.0400*%
%ADD19R,0.0887X0.0612*%
%ADD20OC8,0.0740*%
%ADD21R,0.0840X0.0840*%
%ADD22C,0.0840*%
D10*
X001719Y001719D03*
X016286Y003294D03*
X029278Y001719D03*
X016286Y016679D03*
X029278Y018254D03*
X001719Y018254D03*
D11*
X014404Y012986D03*
X014404Y012486D03*
X014404Y011986D03*
X014404Y011486D03*
X014404Y010986D03*
X014404Y010486D03*
X014404Y009986D03*
X014404Y009486D03*
X014404Y008986D03*
X014404Y008486D03*
X014404Y007986D03*
X014404Y007486D03*
X014404Y006986D03*
X014404Y006486D03*
X018168Y006486D03*
X018168Y006986D03*
X018168Y007486D03*
X018168Y007986D03*
X018168Y008486D03*
X018168Y008986D03*
X018168Y009486D03*
X018168Y009986D03*
X018168Y010486D03*
X018168Y010986D03*
X018168Y011486D03*
X018168Y011986D03*
X018168Y012486D03*
X018168Y012986D03*
D12*
X001645Y007656D02*
X001005Y007656D01*
X001005Y006656D02*
X001645Y006656D01*
X001645Y005656D02*
X001005Y005656D01*
X001005Y004656D02*
X001645Y004656D01*
X001645Y003656D02*
X001005Y003656D01*
D13*
X007108Y004514D03*
X008018Y004514D03*
X008928Y004514D03*
X008928Y015459D03*
X008018Y015459D03*
X007108Y015459D03*
D14*
X008018Y017899D03*
X008018Y002073D03*
D15*
X005656Y001738D03*
X005656Y002486D03*
X005656Y003707D03*
X005656Y004455D03*
X010380Y004455D03*
X010380Y003707D03*
X010380Y002486D03*
X010380Y001738D03*
X021404Y001738D03*
X021404Y002486D03*
X024553Y002486D03*
X024553Y001738D03*
X024553Y004101D03*
X024553Y004849D03*
X024553Y015124D03*
X024553Y015872D03*
X024553Y017486D03*
X024553Y018234D03*
X021404Y018234D03*
X021404Y017486D03*
X010380Y017486D03*
X010380Y018234D03*
X010380Y015872D03*
X010380Y015124D03*
X005656Y015518D03*
X005656Y016266D03*
X005656Y017486D03*
X005656Y018234D03*
D16*
X002093Y010774D03*
X001345Y010774D03*
D17*
X001305Y009593D03*
X002132Y009593D03*
D18*
X023062Y009486D03*
X023062Y008986D03*
X023062Y008486D03*
X023062Y007986D03*
X023062Y009986D03*
X023062Y010486D03*
X023062Y010986D03*
X023062Y011486D03*
X023062Y011986D03*
X026832Y011986D03*
X026832Y011486D03*
X026832Y010986D03*
X026832Y010486D03*
X026832Y009986D03*
X026832Y009486D03*
X026832Y008986D03*
X026832Y008486D03*
X026832Y007986D03*
D19*
X010384Y007620D03*
X010384Y008408D03*
X010384Y009195D03*
X010384Y009982D03*
X010384Y010770D03*
X010384Y011557D03*
X010384Y012345D03*
X004085Y012345D03*
X004085Y011557D03*
X004085Y010770D03*
X004085Y009982D03*
X004085Y009195D03*
X004085Y008408D03*
X004085Y007620D03*
D20*
X001325Y013136D03*
D21*
X001325Y015498D03*
X014711Y018648D03*
X029671Y013530D03*
X029671Y004475D03*
X017860Y001325D03*
D22*
X016860Y001325D03*
X015860Y001325D03*
X014860Y001325D03*
X029671Y005475D03*
X029671Y006475D03*
X029671Y007475D03*
X029671Y008475D03*
X029671Y009475D03*
X029671Y010475D03*
X029671Y011475D03*
X029671Y014530D03*
X029671Y015530D03*
X017711Y018648D03*
X016711Y018648D03*
X015711Y018648D03*
X001325Y016498D03*
M02*
