G75*
G70*
%OFA0B0*%
%FSLAX24Y24*%
%IPPOS*%
%LPD*%
%AMOC8*
5,1,8,0,0,1.08239X$1,22.5*
%
%ADD10C,0.0000*%
%ADD11R,0.0669X0.0256*%
%ADD12C,0.0640*%
%ADD13R,0.0480X0.0880*%
%ADD14R,0.1417X0.0866*%
%ADD15R,0.0591X0.0512*%
%ADD16R,0.0512X0.0591*%
%ADD17R,0.0472X0.0472*%
%ADD18R,0.0450X0.0300*%
%ADD19R,0.0787X0.0512*%
%ADD20OC8,0.0640*%
%ADD21R,0.0740X0.0740*%
%ADD22C,0.0740*%
%ADD23C,0.0080*%
%ADD24C,0.0400*%
%ADD25C,0.0200*%
%ADD26C,0.0236*%
D10*
X000538Y000538D02*
X000538Y019435D01*
X030459Y019435D01*
X030459Y000538D01*
X000538Y000538D01*
X001089Y001719D02*
X001091Y001769D01*
X001097Y001819D01*
X001107Y001868D01*
X001121Y001916D01*
X001138Y001963D01*
X001159Y002008D01*
X001184Y002052D01*
X001212Y002093D01*
X001244Y002132D01*
X001278Y002169D01*
X001315Y002203D01*
X001355Y002233D01*
X001397Y002260D01*
X001441Y002284D01*
X001487Y002305D01*
X001534Y002321D01*
X001582Y002334D01*
X001632Y002343D01*
X001681Y002348D01*
X001732Y002349D01*
X001782Y002346D01*
X001831Y002339D01*
X001880Y002328D01*
X001928Y002313D01*
X001974Y002295D01*
X002019Y002273D01*
X002062Y002247D01*
X002103Y002218D01*
X002142Y002186D01*
X002178Y002151D01*
X002210Y002113D01*
X002240Y002073D01*
X002267Y002030D01*
X002290Y001986D01*
X002309Y001940D01*
X002325Y001892D01*
X002337Y001843D01*
X002345Y001794D01*
X002349Y001744D01*
X002349Y001694D01*
X002345Y001644D01*
X002337Y001595D01*
X002325Y001546D01*
X002309Y001498D01*
X002290Y001452D01*
X002267Y001408D01*
X002240Y001365D01*
X002210Y001325D01*
X002178Y001287D01*
X002142Y001252D01*
X002103Y001220D01*
X002062Y001191D01*
X002019Y001165D01*
X001974Y001143D01*
X001928Y001125D01*
X001880Y001110D01*
X001831Y001099D01*
X001782Y001092D01*
X001732Y001089D01*
X001681Y001090D01*
X001632Y001095D01*
X001582Y001104D01*
X001534Y001117D01*
X001487Y001133D01*
X001441Y001154D01*
X001397Y001178D01*
X001355Y001205D01*
X001315Y001235D01*
X001278Y001269D01*
X001244Y001306D01*
X001212Y001345D01*
X001184Y001386D01*
X001159Y001430D01*
X001138Y001475D01*
X001121Y001522D01*
X001107Y001570D01*
X001097Y001619D01*
X001091Y001669D01*
X001089Y001719D01*
X015656Y003294D02*
X015658Y003344D01*
X015664Y003394D01*
X015674Y003443D01*
X015688Y003491D01*
X015705Y003538D01*
X015726Y003583D01*
X015751Y003627D01*
X015779Y003668D01*
X015811Y003707D01*
X015845Y003744D01*
X015882Y003778D01*
X015922Y003808D01*
X015964Y003835D01*
X016008Y003859D01*
X016054Y003880D01*
X016101Y003896D01*
X016149Y003909D01*
X016199Y003918D01*
X016248Y003923D01*
X016299Y003924D01*
X016349Y003921D01*
X016398Y003914D01*
X016447Y003903D01*
X016495Y003888D01*
X016541Y003870D01*
X016586Y003848D01*
X016629Y003822D01*
X016670Y003793D01*
X016709Y003761D01*
X016745Y003726D01*
X016777Y003688D01*
X016807Y003648D01*
X016834Y003605D01*
X016857Y003561D01*
X016876Y003515D01*
X016892Y003467D01*
X016904Y003418D01*
X016912Y003369D01*
X016916Y003319D01*
X016916Y003269D01*
X016912Y003219D01*
X016904Y003170D01*
X016892Y003121D01*
X016876Y003073D01*
X016857Y003027D01*
X016834Y002983D01*
X016807Y002940D01*
X016777Y002900D01*
X016745Y002862D01*
X016709Y002827D01*
X016670Y002795D01*
X016629Y002766D01*
X016586Y002740D01*
X016541Y002718D01*
X016495Y002700D01*
X016447Y002685D01*
X016398Y002674D01*
X016349Y002667D01*
X016299Y002664D01*
X016248Y002665D01*
X016199Y002670D01*
X016149Y002679D01*
X016101Y002692D01*
X016054Y002708D01*
X016008Y002729D01*
X015964Y002753D01*
X015922Y002780D01*
X015882Y002810D01*
X015845Y002844D01*
X015811Y002881D01*
X015779Y002920D01*
X015751Y002961D01*
X015726Y003005D01*
X015705Y003050D01*
X015688Y003097D01*
X015674Y003145D01*
X015664Y003194D01*
X015658Y003244D01*
X015656Y003294D01*
X028648Y001719D02*
X028650Y001769D01*
X028656Y001819D01*
X028666Y001868D01*
X028680Y001916D01*
X028697Y001963D01*
X028718Y002008D01*
X028743Y002052D01*
X028771Y002093D01*
X028803Y002132D01*
X028837Y002169D01*
X028874Y002203D01*
X028914Y002233D01*
X028956Y002260D01*
X029000Y002284D01*
X029046Y002305D01*
X029093Y002321D01*
X029141Y002334D01*
X029191Y002343D01*
X029240Y002348D01*
X029291Y002349D01*
X029341Y002346D01*
X029390Y002339D01*
X029439Y002328D01*
X029487Y002313D01*
X029533Y002295D01*
X029578Y002273D01*
X029621Y002247D01*
X029662Y002218D01*
X029701Y002186D01*
X029737Y002151D01*
X029769Y002113D01*
X029799Y002073D01*
X029826Y002030D01*
X029849Y001986D01*
X029868Y001940D01*
X029884Y001892D01*
X029896Y001843D01*
X029904Y001794D01*
X029908Y001744D01*
X029908Y001694D01*
X029904Y001644D01*
X029896Y001595D01*
X029884Y001546D01*
X029868Y001498D01*
X029849Y001452D01*
X029826Y001408D01*
X029799Y001365D01*
X029769Y001325D01*
X029737Y001287D01*
X029701Y001252D01*
X029662Y001220D01*
X029621Y001191D01*
X029578Y001165D01*
X029533Y001143D01*
X029487Y001125D01*
X029439Y001110D01*
X029390Y001099D01*
X029341Y001092D01*
X029291Y001089D01*
X029240Y001090D01*
X029191Y001095D01*
X029141Y001104D01*
X029093Y001117D01*
X029046Y001133D01*
X029000Y001154D01*
X028956Y001178D01*
X028914Y001205D01*
X028874Y001235D01*
X028837Y001269D01*
X028803Y001306D01*
X028771Y001345D01*
X028743Y001386D01*
X028718Y001430D01*
X028697Y001475D01*
X028680Y001522D01*
X028666Y001570D01*
X028656Y001619D01*
X028650Y001669D01*
X028648Y001719D01*
X015656Y016679D02*
X015658Y016729D01*
X015664Y016779D01*
X015674Y016828D01*
X015688Y016876D01*
X015705Y016923D01*
X015726Y016968D01*
X015751Y017012D01*
X015779Y017053D01*
X015811Y017092D01*
X015845Y017129D01*
X015882Y017163D01*
X015922Y017193D01*
X015964Y017220D01*
X016008Y017244D01*
X016054Y017265D01*
X016101Y017281D01*
X016149Y017294D01*
X016199Y017303D01*
X016248Y017308D01*
X016299Y017309D01*
X016349Y017306D01*
X016398Y017299D01*
X016447Y017288D01*
X016495Y017273D01*
X016541Y017255D01*
X016586Y017233D01*
X016629Y017207D01*
X016670Y017178D01*
X016709Y017146D01*
X016745Y017111D01*
X016777Y017073D01*
X016807Y017033D01*
X016834Y016990D01*
X016857Y016946D01*
X016876Y016900D01*
X016892Y016852D01*
X016904Y016803D01*
X016912Y016754D01*
X016916Y016704D01*
X016916Y016654D01*
X016912Y016604D01*
X016904Y016555D01*
X016892Y016506D01*
X016876Y016458D01*
X016857Y016412D01*
X016834Y016368D01*
X016807Y016325D01*
X016777Y016285D01*
X016745Y016247D01*
X016709Y016212D01*
X016670Y016180D01*
X016629Y016151D01*
X016586Y016125D01*
X016541Y016103D01*
X016495Y016085D01*
X016447Y016070D01*
X016398Y016059D01*
X016349Y016052D01*
X016299Y016049D01*
X016248Y016050D01*
X016199Y016055D01*
X016149Y016064D01*
X016101Y016077D01*
X016054Y016093D01*
X016008Y016114D01*
X015964Y016138D01*
X015922Y016165D01*
X015882Y016195D01*
X015845Y016229D01*
X015811Y016266D01*
X015779Y016305D01*
X015751Y016346D01*
X015726Y016390D01*
X015705Y016435D01*
X015688Y016482D01*
X015674Y016530D01*
X015664Y016579D01*
X015658Y016629D01*
X015656Y016679D01*
X028648Y018254D02*
X028650Y018304D01*
X028656Y018354D01*
X028666Y018403D01*
X028680Y018451D01*
X028697Y018498D01*
X028718Y018543D01*
X028743Y018587D01*
X028771Y018628D01*
X028803Y018667D01*
X028837Y018704D01*
X028874Y018738D01*
X028914Y018768D01*
X028956Y018795D01*
X029000Y018819D01*
X029046Y018840D01*
X029093Y018856D01*
X029141Y018869D01*
X029191Y018878D01*
X029240Y018883D01*
X029291Y018884D01*
X029341Y018881D01*
X029390Y018874D01*
X029439Y018863D01*
X029487Y018848D01*
X029533Y018830D01*
X029578Y018808D01*
X029621Y018782D01*
X029662Y018753D01*
X029701Y018721D01*
X029737Y018686D01*
X029769Y018648D01*
X029799Y018608D01*
X029826Y018565D01*
X029849Y018521D01*
X029868Y018475D01*
X029884Y018427D01*
X029896Y018378D01*
X029904Y018329D01*
X029908Y018279D01*
X029908Y018229D01*
X029904Y018179D01*
X029896Y018130D01*
X029884Y018081D01*
X029868Y018033D01*
X029849Y017987D01*
X029826Y017943D01*
X029799Y017900D01*
X029769Y017860D01*
X029737Y017822D01*
X029701Y017787D01*
X029662Y017755D01*
X029621Y017726D01*
X029578Y017700D01*
X029533Y017678D01*
X029487Y017660D01*
X029439Y017645D01*
X029390Y017634D01*
X029341Y017627D01*
X029291Y017624D01*
X029240Y017625D01*
X029191Y017630D01*
X029141Y017639D01*
X029093Y017652D01*
X029046Y017668D01*
X029000Y017689D01*
X028956Y017713D01*
X028914Y017740D01*
X028874Y017770D01*
X028837Y017804D01*
X028803Y017841D01*
X028771Y017880D01*
X028743Y017921D01*
X028718Y017965D01*
X028697Y018010D01*
X028680Y018057D01*
X028666Y018105D01*
X028656Y018154D01*
X028650Y018204D01*
X028648Y018254D01*
X001089Y018254D02*
X001091Y018304D01*
X001097Y018354D01*
X001107Y018403D01*
X001121Y018451D01*
X001138Y018498D01*
X001159Y018543D01*
X001184Y018587D01*
X001212Y018628D01*
X001244Y018667D01*
X001278Y018704D01*
X001315Y018738D01*
X001355Y018768D01*
X001397Y018795D01*
X001441Y018819D01*
X001487Y018840D01*
X001534Y018856D01*
X001582Y018869D01*
X001632Y018878D01*
X001681Y018883D01*
X001732Y018884D01*
X001782Y018881D01*
X001831Y018874D01*
X001880Y018863D01*
X001928Y018848D01*
X001974Y018830D01*
X002019Y018808D01*
X002062Y018782D01*
X002103Y018753D01*
X002142Y018721D01*
X002178Y018686D01*
X002210Y018648D01*
X002240Y018608D01*
X002267Y018565D01*
X002290Y018521D01*
X002309Y018475D01*
X002325Y018427D01*
X002337Y018378D01*
X002345Y018329D01*
X002349Y018279D01*
X002349Y018229D01*
X002345Y018179D01*
X002337Y018130D01*
X002325Y018081D01*
X002309Y018033D01*
X002290Y017987D01*
X002267Y017943D01*
X002240Y017900D01*
X002210Y017860D01*
X002178Y017822D01*
X002142Y017787D01*
X002103Y017755D01*
X002062Y017726D01*
X002019Y017700D01*
X001974Y017678D01*
X001928Y017660D01*
X001880Y017645D01*
X001831Y017634D01*
X001782Y017627D01*
X001732Y017624D01*
X001681Y017625D01*
X001632Y017630D01*
X001582Y017639D01*
X001534Y017652D01*
X001487Y017668D01*
X001441Y017689D01*
X001397Y017713D01*
X001355Y017740D01*
X001315Y017770D01*
X001278Y017804D01*
X001244Y017841D01*
X001212Y017880D01*
X001184Y017921D01*
X001159Y017965D01*
X001138Y018010D01*
X001121Y018057D01*
X001107Y018105D01*
X001097Y018154D01*
X001091Y018204D01*
X001089Y018254D01*
D11*
X014404Y012986D03*
X014404Y012486D03*
X014404Y011986D03*
X014404Y011486D03*
X014404Y010986D03*
X014404Y010486D03*
X014404Y009986D03*
X014404Y009486D03*
X014404Y008986D03*
X014404Y008486D03*
X014404Y007986D03*
X014404Y007486D03*
X014404Y006986D03*
X014404Y006486D03*
X018168Y006486D03*
X018168Y006986D03*
X018168Y007486D03*
X018168Y007986D03*
X018168Y008486D03*
X018168Y008986D03*
X018168Y009486D03*
X018168Y009986D03*
X018168Y010486D03*
X018168Y010986D03*
X018168Y011486D03*
X018168Y011986D03*
X018168Y012486D03*
X018168Y012986D03*
D12*
X001645Y007656D02*
X001005Y007656D01*
X001005Y006656D02*
X001645Y006656D01*
X001645Y005656D02*
X001005Y005656D01*
X001005Y004656D02*
X001645Y004656D01*
X001645Y003656D02*
X001005Y003656D01*
D13*
X007108Y004514D03*
X008018Y004514D03*
X008928Y004514D03*
X008928Y015459D03*
X008018Y015459D03*
X007108Y015459D03*
D14*
X008018Y017899D03*
X008018Y002073D03*
D15*
X005656Y001738D03*
X005656Y002486D03*
X005656Y003707D03*
X005656Y004455D03*
X010380Y004455D03*
X010380Y003707D03*
X010380Y002486D03*
X010380Y001738D03*
X021404Y001738D03*
X021404Y002486D03*
X024553Y002486D03*
X024553Y001738D03*
X024553Y004101D03*
X024553Y004849D03*
X024553Y015124D03*
X024553Y015872D03*
X024553Y017486D03*
X024553Y018234D03*
X021404Y018234D03*
X021404Y017486D03*
X010380Y017486D03*
X010380Y018234D03*
X010380Y015872D03*
X010380Y015124D03*
X005656Y015518D03*
X005656Y016266D03*
X005656Y017486D03*
X005656Y018234D03*
D16*
X002093Y010774D03*
X001345Y010774D03*
D17*
X001305Y009593D03*
X002132Y009593D03*
D18*
X023062Y009486D03*
X023062Y008986D03*
X023062Y008486D03*
X023062Y007986D03*
X023062Y009986D03*
X023062Y010486D03*
X023062Y010986D03*
X023062Y011486D03*
X023062Y011986D03*
X026832Y011986D03*
X026832Y011486D03*
X026832Y010986D03*
X026832Y010486D03*
X026832Y009986D03*
X026832Y009486D03*
X026832Y008986D03*
X026832Y008486D03*
X026832Y007986D03*
D19*
X010384Y007620D03*
X010384Y008408D03*
X010384Y009195D03*
X010384Y009982D03*
X010384Y010770D03*
X010384Y011557D03*
X010384Y012345D03*
X004085Y012345D03*
X004085Y011557D03*
X004085Y010770D03*
X004085Y009982D03*
X004085Y009195D03*
X004085Y008408D03*
X004085Y007620D03*
D20*
X001325Y013136D03*
D21*
X001325Y015498D03*
X014711Y018648D03*
X029671Y013530D03*
X029671Y004475D03*
X017860Y001325D03*
D22*
X016860Y001325D03*
X015860Y001325D03*
X014860Y001325D03*
X029671Y005475D03*
X029671Y006475D03*
X029671Y007475D03*
X029671Y008475D03*
X029671Y009475D03*
X029671Y010475D03*
X029671Y011475D03*
X029671Y014530D03*
X029671Y015530D03*
X017711Y018648D03*
X016711Y018648D03*
X015711Y018648D03*
X001325Y016498D03*
D23*
X003569Y013963D02*
X011640Y013963D01*
X013333Y015656D01*
X019790Y015656D01*
X019435Y015301D02*
X019396Y015341D01*
X016325Y015341D01*
X016128Y015144D01*
X016286Y014632D02*
X014199Y014632D01*
X014475Y013569D02*
X014396Y013490D01*
X012034Y013490D01*
X012231Y014042D02*
X016404Y014042D01*
X016482Y014120D01*
X017939Y013294D02*
X014711Y013294D01*
X014404Y012986D01*
X014396Y013018D01*
X013412Y013018D01*
X013294Y013136D01*
X012900Y013018D02*
X013412Y012506D01*
X014396Y012506D01*
X014404Y012486D01*
X014199Y012191D02*
X012939Y012191D01*
X012900Y013018D02*
X003372Y013018D01*
X002782Y013608D01*
X000853Y013608D01*
X000853Y009356D01*
X001010Y009199D01*
X001719Y009199D01*
X002112Y009593D01*
X002132Y009593D01*
X001325Y009593D02*
X001305Y009593D01*
X001325Y009593D02*
X001325Y010774D01*
X001345Y010774D01*
X003018Y008805D02*
X003727Y008805D01*
X004081Y009160D01*
X004085Y009195D01*
X004081Y008412D02*
X003372Y008412D01*
X004081Y008412D02*
X004085Y008408D01*
X004120Y007624D02*
X004085Y007620D01*
X004120Y007624D02*
X004160Y007624D01*
X009278Y012742D01*
X011404Y012742D01*
X011482Y012664D01*
X011089Y011482D02*
X014396Y011482D01*
X014404Y011486D01*
X014404Y010986D02*
X014435Y010971D01*
X014632Y010774D01*
X015065Y010774D01*
X014404Y010486D02*
X014396Y010459D01*
X014278Y010341D01*
X012231Y010341D01*
X011561Y009986D02*
X013648Y009986D01*
X013294Y009632D02*
X012309Y009632D01*
X012309Y007545D01*
X011955Y007191D01*
X001758Y007191D01*
X001325Y007624D01*
X001325Y007656D01*
X003136Y005341D02*
X002467Y004671D01*
X001325Y004671D01*
X001325Y004656D01*
X001325Y003656D02*
X001325Y003648D01*
X000931Y003648D01*
X000931Y001404D01*
X001404Y000931D01*
X005813Y000931D01*
X006089Y001207D01*
X008963Y004475D02*
X009475Y003963D01*
X010065Y003963D01*
X010341Y003687D01*
X010380Y003707D01*
X010380Y002486D01*
X012112Y000853D02*
X013175Y001916D01*
X018608Y001916D01*
X019553Y002860D01*
X019632Y003294D02*
X019553Y003372D01*
X019632Y003294D02*
X020616Y003294D01*
X021404Y002506D01*
X021404Y002486D01*
X021955Y003057D02*
X022034Y003136D01*
X022821Y003136D01*
X023963Y004475D02*
X023963Y005026D01*
X024199Y005262D01*
X025380Y005262D01*
X025971Y005853D01*
X024790Y006207D02*
X029435Y006207D01*
X029671Y006443D01*
X029671Y006475D01*
X029671Y007475D02*
X029671Y007506D01*
X028687Y008490D01*
X027309Y008490D01*
X027309Y009120D01*
X027152Y009278D01*
X027034Y009278D01*
X026837Y009475D01*
X026832Y009486D01*
X027034Y009790D02*
X028372Y009790D01*
X029671Y008490D01*
X029671Y008475D01*
X028530Y007860D02*
X028097Y008294D01*
X026994Y008294D01*
X026837Y008451D01*
X026832Y008486D01*
X026640Y008805D02*
X026128Y008805D01*
X024750Y007427D01*
X023062Y008486D02*
X023057Y008490D01*
X022860Y008687D01*
X022112Y008687D01*
X020656Y010144D01*
X020813Y010498D02*
X018175Y010498D01*
X018168Y010486D01*
X018168Y009986D02*
X016837Y009986D01*
X016719Y009868D01*
X018168Y009986D02*
X019120Y009986D01*
X019278Y010144D01*
X019790Y010144D02*
X019160Y009514D01*
X018175Y009514D01*
X018168Y009486D01*
X018175Y009002D02*
X018168Y008986D01*
X018175Y009002D02*
X019120Y009002D01*
X019553Y008569D01*
X019199Y007703D02*
X019376Y007526D01*
X019396Y007545D01*
X022388Y007545D01*
X022467Y007467D01*
X023062Y008986D02*
X023057Y009002D01*
X022900Y009160D01*
X022152Y009160D01*
X020813Y010498D01*
X020577Y010813D02*
X020459Y010695D01*
X019435Y010695D01*
X019278Y010853D01*
X019514Y011128D02*
X019435Y011207D01*
X018372Y011207D01*
X018175Y011010D01*
X018168Y010986D01*
X018168Y011486D02*
X018136Y011522D01*
X017979Y011679D01*
X015734Y011679D01*
X016758Y012073D02*
X018057Y012073D01*
X018136Y011994D01*
X018168Y011986D01*
X019514Y011128D02*
X020223Y011128D01*
X020301Y011049D01*
X020577Y010813D02*
X022900Y010813D01*
X023057Y010971D01*
X023062Y010986D01*
X023057Y011482D02*
X023062Y011486D01*
X023057Y011482D02*
X020026Y011482D01*
X021049Y011837D02*
X022939Y011837D01*
X023057Y011955D01*
X023062Y011986D01*
X023451Y012545D02*
X020695Y012545D01*
X018097Y013451D02*
X017939Y013294D01*
X014404Y011986D02*
X014199Y012191D01*
X014632Y010183D02*
X014435Y009986D01*
X014404Y009986D01*
X014632Y010183D02*
X015065Y010183D01*
X015065Y009002D02*
X014435Y009002D01*
X014404Y008986D01*
X014435Y008490D02*
X014404Y008486D01*
X014435Y008490D02*
X015301Y008490D01*
X014404Y007986D02*
X014396Y007979D01*
X012664Y007979D01*
X011876Y007624D02*
X010419Y007624D01*
X010384Y007620D01*
X010384Y008408D02*
X010419Y008412D01*
X010498Y008412D01*
X011601Y009514D01*
X011561Y009986D02*
X011089Y009514D01*
X012309Y007270D02*
X011916Y006876D01*
X007073Y006876D01*
X006797Y006601D01*
X009475Y005026D02*
X010341Y005026D01*
X010813Y005892D02*
X011168Y006246D01*
X011482Y006246D01*
X011561Y006168D01*
X015301Y006168D01*
X015341Y006207D01*
X015931Y006561D02*
X017349Y006561D01*
X017545Y006758D01*
X018175Y006955D02*
X018168Y006986D01*
X018175Y006955D02*
X018294Y006837D01*
X018845Y006837D01*
X019199Y007191D02*
X018412Y007979D01*
X018175Y007979D01*
X018168Y007986D01*
X018168Y007486D02*
X018136Y007467D01*
X015105Y007467D01*
X015065Y007427D01*
X014404Y007486D02*
X014396Y007467D01*
X014199Y007270D01*
X012309Y007270D01*
X014404Y006486D02*
X014435Y006522D01*
X014475Y006561D01*
X015931Y006561D01*
X016364Y006207D02*
X018057Y006207D01*
X018215Y006049D01*
X018175Y006482D02*
X018168Y006486D01*
X018175Y006482D02*
X019553Y006482D01*
X019553Y007349D01*
X019376Y007526D01*
X022506Y009671D02*
X022900Y009671D01*
X023057Y009514D01*
X023062Y009486D01*
X026640Y008805D02*
X026797Y008963D01*
X026832Y008986D01*
X027034Y009790D02*
X026837Y009986D01*
X026832Y009986D01*
X026994Y010301D02*
X028845Y010301D01*
X029671Y009475D01*
X029671Y010475D02*
X029671Y010498D01*
X029356Y010813D01*
X026994Y010813D01*
X026837Y010971D01*
X026832Y010986D01*
X026837Y011482D02*
X026832Y011486D01*
X026837Y011482D02*
X029671Y011482D01*
X029671Y011475D01*
X029238Y013018D02*
X026916Y015341D01*
X026916Y016994D01*
X018254Y016994D01*
X017939Y018136D02*
X018845Y019042D01*
X025262Y019042D01*
X029160Y015144D01*
X029160Y013530D01*
X029671Y013530D01*
X029238Y013018D02*
X030183Y013018D01*
X030183Y004042D01*
X030105Y003963D01*
X029238Y003963D01*
X028687Y004514D01*
X024868Y004514D01*
X024553Y004829D01*
X024553Y004849D01*
X024790Y006207D02*
X024750Y006246D01*
X026837Y007427D02*
X026994Y007427D01*
X026837Y007427D02*
X026837Y007979D01*
X026832Y007986D01*
X026994Y010301D02*
X026837Y010459D01*
X026832Y010486D01*
X024553Y015105D02*
X021955Y015105D01*
X021837Y014986D01*
X022998Y016266D02*
X023018Y016286D01*
X025577Y016286D01*
X026561Y015301D01*
X024553Y015124D02*
X024553Y015105D01*
X023805Y015459D02*
X022998Y016266D01*
X022624Y016640D01*
X022034Y016640D01*
X021049Y018648D02*
X019868Y017467D01*
X014356Y017467D01*
X013490Y016601D01*
X013333Y016246D02*
X011601Y017979D01*
X013687Y018333D02*
X013884Y018136D01*
X017939Y018136D01*
X021049Y018648D02*
X025144Y018648D01*
X025931Y019278D02*
X029671Y015538D01*
X029671Y015530D01*
X025931Y019278D02*
X014238Y019278D01*
X014042Y019081D01*
X013963Y016246D02*
X013333Y016246D01*
X013963Y016246D02*
X014199Y016010D01*
X007585Y013608D02*
X005419Y013608D01*
X005183Y013372D01*
X003569Y013963D02*
X003254Y013648D01*
X005695Y016286D02*
X005971Y016010D01*
X006561Y016010D01*
X007073Y015498D01*
X007108Y015459D01*
X005695Y016286D02*
X005656Y016266D01*
X005656Y017486D01*
X013569Y004790D02*
X016640Y004790D01*
X016719Y004711D01*
X015734Y004081D02*
X020459Y004081D01*
X015734Y004081D02*
X015656Y004002D01*
X013569Y004790D02*
X013490Y004711D01*
X008963Y004475D02*
X008928Y004514D01*
D24*
X009475Y004475D03*
X009475Y005026D03*
X010341Y005026D03*
X010813Y005892D03*
X011325Y005892D03*
X009829Y005892D03*
X008294Y005380D03*
X008136Y006522D03*
X006797Y006601D03*
X005105Y005892D03*
X006010Y005026D03*
X003766Y006640D03*
X002585Y006837D03*
X003136Y005341D03*
X002467Y003136D03*
X005026Y002467D03*
X006089Y001207D03*
X012112Y000853D03*
X013057Y001286D03*
X015892Y002270D03*
X017427Y003727D03*
X016286Y004435D03*
X016719Y004711D03*
X015656Y004002D03*
X014278Y003884D03*
X013490Y004711D03*
X015341Y006207D03*
X015931Y006561D03*
X016364Y006207D03*
X017073Y006994D03*
X017545Y006758D03*
X018215Y006049D03*
X017782Y005774D03*
X018845Y006837D03*
X019199Y007191D03*
X019199Y007703D03*
X019553Y008569D03*
X018923Y008648D03*
X017506Y008018D03*
X015301Y008490D03*
X015065Y008018D03*
X015065Y007427D03*
X013530Y006522D03*
X011876Y007624D03*
X012664Y007979D03*
X011601Y009514D03*
X011089Y009514D03*
X012231Y010341D03*
X012939Y010774D03*
X011994Y011128D03*
X011089Y011482D03*
X011089Y012349D03*
X011482Y012664D03*
X012034Y013490D03*
X012231Y014042D03*
X013294Y013136D03*
X012939Y012191D03*
X014475Y013569D03*
X015577Y013687D03*
X016482Y014120D03*
X017270Y014553D03*
X017585Y014120D03*
X018097Y013451D03*
X018608Y013412D03*
X018884Y012545D03*
X017506Y012506D03*
X017073Y012939D03*
X016758Y012073D03*
X015734Y011679D03*
X015065Y011994D03*
X015065Y010774D03*
X015065Y010183D03*
X013648Y009986D03*
X013294Y009632D03*
X015065Y009002D03*
X016719Y009868D03*
X019278Y010144D03*
X019790Y010144D03*
X020656Y010144D03*
X019278Y010853D03*
X020026Y011482D03*
X020301Y011049D03*
X021049Y011837D03*
X020695Y012545D03*
X022191Y013412D03*
X023451Y012545D03*
X025459Y013057D03*
X026049Y014553D03*
X026561Y015301D03*
X025459Y015892D03*
X025892Y016640D03*
X025459Y017349D03*
X024750Y016640D03*
X023805Y015459D03*
X021837Y014986D03*
X019868Y016168D03*
X019790Y015656D03*
X019435Y015301D03*
X017270Y016561D03*
X018254Y016994D03*
X018136Y017821D03*
X022034Y016640D03*
X023608Y018254D03*
X025144Y018648D03*
X028412Y012979D03*
X028963Y011837D03*
X028530Y009120D03*
X027664Y008884D03*
X028530Y007860D03*
X028963Y007427D03*
X028097Y006994D03*
X027664Y007427D03*
X026994Y007427D03*
X025538Y008805D03*
X023608Y008805D03*
X022506Y009671D03*
X022467Y007467D03*
X023569Y007427D03*
X024750Y007427D03*
X024750Y006246D03*
X025971Y005853D03*
X023963Y004475D03*
X024750Y003530D03*
X025616Y003490D03*
X022821Y003136D03*
X021955Y003057D03*
X020459Y004081D03*
X019553Y003372D03*
X019553Y002860D03*
X021955Y004514D03*
X022309Y004868D03*
X022349Y001758D03*
X005183Y013372D03*
X003687Y014317D03*
X003254Y013648D03*
X005813Y014790D03*
X006482Y015459D03*
X007782Y014671D03*
X007585Y013608D03*
X009356Y014671D03*
X009947Y014593D03*
X009435Y016049D03*
X010813Y016679D03*
X011601Y017979D03*
X013687Y018333D03*
X014042Y019081D03*
X013490Y016601D03*
X014199Y016010D03*
X014199Y014632D03*
X016128Y015144D03*
X016286Y014632D03*
X005065Y016640D03*
X004396Y017073D03*
X002270Y011561D03*
X002703Y011128D03*
X003018Y008805D03*
X003372Y008412D03*
D25*
X002585Y006837D02*
X002585Y005774D01*
X003294Y005774D01*
X003923Y005144D01*
X003845Y005105D01*
X002034Y003294D01*
X002034Y002545D01*
X004986Y002545D01*
X005026Y002467D01*
X005656Y002467D01*
X005656Y002486D01*
X006443Y003136D02*
X002467Y003136D01*
X003923Y005144D02*
X004986Y005144D01*
X005656Y004475D01*
X005656Y004455D01*
X005616Y004632D01*
X006010Y005026D01*
X006207Y005459D02*
X007034Y004632D01*
X007108Y004514D01*
X007112Y004593D01*
X007703Y005183D01*
X008097Y005183D01*
X008294Y005380D01*
X008333Y005459D01*
X017506Y005459D01*
X017624Y005341D01*
X021837Y005341D01*
X022309Y004868D01*
X022388Y004908D01*
X024160Y006679D01*
X027782Y006679D01*
X028097Y006994D01*
X027664Y007427D02*
X028963Y007427D01*
X027664Y008884D02*
X027900Y009120D01*
X028530Y009120D01*
X025538Y008805D02*
X023608Y008805D01*
X022939Y008136D02*
X018766Y008136D01*
X018589Y008313D01*
X018923Y008648D01*
X018589Y008313D02*
X018451Y008451D01*
X018175Y008451D01*
X018168Y008486D01*
X018097Y008530D01*
X017860Y008530D01*
X016955Y009435D01*
X014475Y009435D01*
X014435Y009475D01*
X014404Y009486D01*
X012939Y010774D02*
X012349Y010774D01*
X011994Y011128D01*
X011089Y012349D02*
X010419Y012349D01*
X010384Y012345D01*
X009553Y014238D02*
X009868Y014553D01*
X009947Y014593D01*
X009947Y015380D01*
X010144Y015380D01*
X010380Y015144D01*
X010380Y015124D01*
X009947Y015380D02*
X009042Y015380D01*
X008963Y015459D01*
X008928Y015459D01*
X009435Y016049D02*
X009435Y016128D01*
X009356Y016128D01*
X009278Y016207D01*
X009278Y016286D01*
X010380Y016679D02*
X010380Y015872D01*
X010380Y016679D02*
X010813Y016679D01*
X010380Y016679D02*
X010380Y017486D01*
X010380Y018234D02*
X010380Y018254D01*
X009593Y018254D01*
X009711Y018412D02*
X013018Y018412D01*
X013608Y017821D01*
X018136Y017821D01*
X017270Y016561D02*
X019475Y016561D01*
X019868Y016168D01*
X021404Y017486D02*
X021404Y017506D01*
X024475Y017506D01*
X024553Y017486D01*
X024553Y017467D01*
X025341Y017467D01*
X025459Y017349D01*
X025892Y016640D02*
X024750Y016640D01*
X024553Y015892D02*
X024553Y015872D01*
X024553Y015892D02*
X025459Y015892D01*
X026049Y014553D02*
X017270Y014553D01*
X017664Y014199D02*
X017585Y014120D01*
X017664Y014199D02*
X022427Y014199D01*
X022506Y014120D01*
X027270Y014120D01*
X028412Y012979D01*
X028963Y011837D02*
X026994Y013805D01*
X022388Y013805D01*
X022309Y013884D01*
X017939Y013884D01*
X017742Y013687D01*
X015577Y013687D01*
X017073Y012939D02*
X018097Y012939D01*
X018168Y012986D01*
X018175Y012979D01*
X025459Y012979D01*
X025459Y013057D01*
X025459Y012979D02*
X025813Y012979D01*
X026797Y011994D01*
X026832Y011986D01*
X022191Y013412D02*
X018608Y013412D01*
X018884Y012545D02*
X018215Y012545D01*
X018175Y012506D01*
X018168Y012486D01*
X017506Y012506D02*
X015577Y012506D01*
X015065Y011994D01*
X009553Y014238D02*
X003687Y014238D01*
X003687Y014317D01*
X003687Y014238D02*
X002585Y014238D01*
X001325Y015498D01*
X002073Y015774D02*
X001364Y016482D01*
X001325Y016482D01*
X001325Y016498D01*
X002073Y015774D02*
X005065Y015774D01*
X005065Y016640D01*
X004396Y017073D02*
X005498Y018175D01*
X005577Y018175D01*
X005656Y018234D01*
X005656Y018254D01*
X006443Y018254D01*
X006443Y018766D02*
X006286Y018766D01*
X006168Y018884D01*
X006168Y019199D01*
X009829Y019199D01*
X009868Y019160D01*
X009868Y019120D01*
X009750Y019120D01*
X009711Y019081D01*
X009711Y019042D01*
X009829Y019042D01*
X009868Y019002D01*
X009868Y018963D01*
X009750Y018963D01*
X009711Y018923D01*
X009711Y018412D01*
X005656Y015538D02*
X005419Y015774D01*
X005065Y015774D01*
X005656Y015538D02*
X005656Y015518D01*
X005734Y015459D01*
X006482Y015459D01*
X005813Y014790D02*
X007664Y014790D01*
X007782Y014671D01*
X009356Y014671D01*
X004085Y012345D02*
X003687Y012742D01*
X001719Y012742D01*
X001325Y013136D01*
X002270Y011561D02*
X004081Y011561D01*
X004085Y011557D01*
X004081Y010774D02*
X004085Y010770D01*
X004081Y010774D02*
X002703Y010774D01*
X002703Y011128D01*
X002703Y010774D02*
X002093Y010774D01*
X003766Y006640D02*
X004947Y005459D01*
X006207Y005459D01*
X005105Y005892D02*
X009829Y005892D01*
X011089Y005144D02*
X017388Y005144D01*
X018018Y004514D01*
X021955Y004514D01*
X019868Y003648D02*
X019711Y003805D01*
X017506Y003805D01*
X017427Y003727D01*
X016286Y004435D02*
X014238Y004435D01*
X010577Y000774D01*
X009671Y000774D01*
X009671Y000813D01*
X009750Y000892D01*
X009908Y000892D01*
X009908Y000931D01*
X009868Y000971D01*
X009711Y000971D01*
X009711Y001010D01*
X009750Y001049D01*
X009868Y001049D01*
X009868Y001089D01*
X009750Y001207D01*
X009593Y001207D01*
X009593Y001758D02*
X010380Y001758D01*
X010380Y001738D01*
X013057Y001286D02*
X013097Y001325D01*
X014860Y001325D01*
X015892Y002270D02*
X014278Y003884D01*
X011443Y005774D02*
X011325Y005892D01*
X011443Y005774D02*
X017782Y005774D01*
X017073Y006994D02*
X014435Y006994D01*
X014404Y006986D01*
X013530Y006522D02*
X008136Y006522D01*
X010459Y004514D02*
X011089Y005144D01*
X010459Y004514D02*
X010380Y004455D01*
X010380Y004475D01*
X009475Y004475D01*
X007108Y004514D02*
X007073Y004475D01*
X006758Y004475D01*
X006246Y003963D01*
X005892Y003963D01*
X005656Y003727D01*
X005656Y003707D01*
X005656Y001758D02*
X005656Y001738D01*
X005656Y001758D02*
X006443Y001758D01*
X002585Y005774D02*
X001443Y005774D01*
X001325Y005656D01*
X015065Y008018D02*
X017506Y008018D01*
X022939Y008136D02*
X023057Y008018D01*
X023062Y007986D01*
X023097Y007900D01*
X023569Y007427D01*
X024317Y004081D02*
X024553Y004081D01*
X024553Y004101D01*
X024317Y004081D02*
X024317Y003648D01*
X019868Y003648D01*
X021404Y001758D02*
X021404Y001738D01*
X021404Y001758D02*
X022349Y001758D01*
X024553Y001758D01*
X024553Y001738D01*
X024553Y002486D02*
X024553Y003136D01*
X024317Y003372D01*
X024317Y003648D01*
X024750Y003530D02*
X024790Y003490D01*
X025616Y003490D01*
X024553Y018234D02*
X024553Y018254D01*
X023608Y018254D01*
X021404Y018254D01*
X021404Y018234D01*
D26*
X021414Y018225D02*
X021414Y018244D01*
X021917Y018244D01*
X021917Y018372D01*
X024040Y018372D01*
X024040Y018244D01*
X024543Y018244D01*
X024543Y018225D01*
X024040Y018225D01*
X024040Y017950D01*
X024055Y017894D01*
X024063Y017881D01*
X024024Y017842D01*
X021933Y017842D01*
X021894Y017881D01*
X021902Y017894D01*
X021917Y017950D01*
X021917Y018225D01*
X021414Y018225D01*
X021414Y018244D02*
X021414Y018372D01*
X021394Y018372D01*
X021394Y018244D01*
X021414Y018244D01*
X021917Y018142D02*
X024040Y018142D01*
X024051Y017907D02*
X021906Y017907D01*
X024544Y018244D02*
X024544Y018372D01*
X024563Y018372D01*
X024563Y018244D01*
X024544Y018244D01*
X020263Y012642D02*
X018720Y012642D01*
X018720Y012486D01*
X018168Y012486D01*
X018168Y012486D01*
X018720Y012486D01*
X018720Y012330D01*
X018705Y012274D01*
X020350Y012274D01*
X020325Y012298D02*
X020448Y012176D01*
X020608Y012109D01*
X020705Y012109D01*
X020680Y012084D01*
X020613Y011924D01*
X020613Y011759D01*
X020366Y011759D01*
X020273Y011852D01*
X020113Y011919D01*
X019939Y011919D01*
X019779Y011852D01*
X019656Y011730D01*
X019590Y011569D01*
X019590Y011442D01*
X019490Y011483D01*
X018738Y011483D01*
X018738Y011712D01*
X018714Y011736D01*
X018738Y011761D01*
X018738Y012212D01*
X018695Y012256D01*
X018705Y012274D01*
X018720Y012508D02*
X020259Y012508D01*
X020259Y012459D02*
X020325Y012298D01*
X020259Y012459D02*
X020259Y012632D01*
X020263Y012642D01*
X020661Y012039D02*
X018738Y012039D01*
X018738Y011804D02*
X019731Y011804D01*
X019590Y011569D02*
X018738Y011569D01*
X017597Y011403D02*
X017597Y011261D01*
X017621Y011236D01*
X017597Y011212D01*
X017597Y010761D01*
X017621Y010736D01*
X017597Y010712D01*
X017597Y010263D01*
X016907Y010263D01*
X016805Y010305D01*
X016632Y010305D01*
X016472Y010238D01*
X016349Y010115D01*
X016282Y009955D01*
X016282Y009782D01*
X016349Y009621D01*
X016472Y009498D01*
X016632Y009432D01*
X016805Y009432D01*
X016966Y009498D01*
X017089Y009621D01*
X017125Y009710D01*
X017597Y009710D01*
X017597Y009261D01*
X017621Y009236D01*
X017597Y009212D01*
X017597Y008761D01*
X017640Y008717D01*
X017630Y008699D01*
X017615Y008643D01*
X017615Y008486D01*
X017615Y008445D01*
X017593Y008454D01*
X017419Y008454D01*
X017259Y008388D01*
X017225Y008354D01*
X015717Y008354D01*
X015738Y008404D01*
X015738Y008577D01*
X015671Y008737D01*
X015548Y008860D01*
X015489Y008885D01*
X015501Y008915D01*
X015501Y009089D01*
X015435Y009249D01*
X015312Y009372D01*
X015152Y009438D01*
X014978Y009438D01*
X014956Y009429D01*
X014956Y009486D01*
X014404Y009486D01*
X014404Y009486D01*
X014956Y009486D01*
X014956Y009643D01*
X014942Y009699D01*
X014931Y009717D01*
X014966Y009752D01*
X014978Y009747D01*
X015152Y009747D01*
X015312Y009813D01*
X015435Y009936D01*
X015501Y010096D01*
X015501Y010270D01*
X015435Y010430D01*
X015387Y010479D01*
X015435Y010527D01*
X015501Y010687D01*
X015501Y010861D01*
X015435Y011021D01*
X015312Y011144D01*
X015152Y011210D01*
X014978Y011210D01*
X014975Y011208D01*
X014975Y011212D01*
X014950Y011236D01*
X014975Y011261D01*
X014975Y011560D01*
X014978Y011558D01*
X015152Y011558D01*
X015298Y011619D01*
X015298Y011593D01*
X015365Y011432D01*
X015487Y011310D01*
X015648Y011243D01*
X015821Y011243D01*
X015982Y011310D01*
X016075Y011403D01*
X017597Y011403D01*
X017597Y011335D02*
X016007Y011335D01*
X015462Y011335D02*
X014975Y011335D01*
X015179Y011569D02*
X015308Y011569D01*
X015356Y011100D02*
X017597Y011100D01*
X017597Y010865D02*
X015499Y010865D01*
X015478Y010631D02*
X017597Y010631D01*
X017597Y010396D02*
X015449Y010396D01*
X015501Y010161D02*
X016395Y010161D01*
X016282Y009926D02*
X015425Y009926D01*
X014943Y009692D02*
X016320Y009692D01*
X016572Y009457D02*
X014956Y009457D01*
X015446Y009222D02*
X017607Y009222D01*
X017597Y009457D02*
X016866Y009457D01*
X017118Y009692D02*
X017597Y009692D01*
X017597Y008988D02*
X015501Y008988D01*
X015656Y008753D02*
X017604Y008753D01*
X017615Y008518D02*
X015738Y008518D01*
X014404Y009486D02*
X013851Y009486D01*
X013851Y009330D01*
X013866Y009274D01*
X013876Y009256D01*
X013833Y009212D01*
X013833Y008761D01*
X013857Y008736D01*
X013833Y008712D01*
X013833Y008261D01*
X013839Y008255D01*
X013004Y008255D01*
X012911Y008348D01*
X012750Y008415D01*
X012585Y008415D01*
X012585Y009356D01*
X012953Y009356D01*
X013046Y009262D01*
X013207Y009196D01*
X013380Y009196D01*
X013541Y009262D01*
X013663Y009385D01*
X013730Y009545D01*
X013730Y009550D01*
X013735Y009550D01*
X013851Y009598D01*
X013851Y009486D01*
X014404Y009486D01*
X014404Y009486D01*
X013851Y009457D02*
X013693Y009457D01*
X013843Y009222D02*
X013444Y009222D01*
X013143Y009222D02*
X012585Y009222D01*
X012585Y008988D02*
X013833Y008988D01*
X013841Y008753D02*
X012585Y008753D01*
X012585Y008518D02*
X013833Y008518D01*
X013833Y008283D02*
X012976Y008283D01*
X009794Y008014D02*
X009754Y007974D01*
X009754Y007467D01*
X004715Y007467D01*
X004715Y007789D01*
X009392Y012466D01*
X009772Y012466D01*
X009772Y012355D01*
X010374Y012355D01*
X010374Y012335D01*
X009772Y012335D01*
X009772Y012060D01*
X009787Y012005D01*
X009809Y011966D01*
X009754Y011911D01*
X009754Y011204D01*
X009794Y011164D01*
X009754Y011124D01*
X009754Y010416D01*
X009794Y010376D01*
X009754Y010336D01*
X009754Y009629D01*
X009794Y009589D01*
X009754Y009549D01*
X009754Y008841D01*
X009794Y008801D01*
X009754Y008761D01*
X009754Y008054D01*
X009794Y008014D01*
X009759Y008049D02*
X004975Y008049D01*
X005209Y008283D02*
X009754Y008283D01*
X009754Y008518D02*
X005444Y008518D01*
X005679Y008753D02*
X009754Y008753D01*
X009754Y008988D02*
X005914Y008988D01*
X006148Y009222D02*
X009754Y009222D01*
X009754Y009457D02*
X006383Y009457D01*
X006618Y009692D02*
X009754Y009692D01*
X009754Y009926D02*
X006852Y009926D01*
X007087Y010161D02*
X009754Y010161D01*
X009774Y010396D02*
X007322Y010396D01*
X007557Y010631D02*
X009754Y010631D01*
X009754Y010865D02*
X007791Y010865D01*
X008026Y011100D02*
X009754Y011100D01*
X009754Y011335D02*
X008261Y011335D01*
X008496Y011569D02*
X009754Y011569D01*
X009754Y011804D02*
X008730Y011804D01*
X008965Y012039D02*
X009778Y012039D01*
X009772Y012274D02*
X009200Y012274D01*
X008886Y012742D02*
X004715Y008570D01*
X004715Y008761D01*
X004675Y008801D01*
X004715Y008841D01*
X004715Y009549D01*
X004675Y009589D01*
X004715Y009629D01*
X004715Y010336D01*
X004660Y010391D01*
X004682Y010430D01*
X004697Y010485D01*
X004697Y010760D01*
X004095Y010760D01*
X004095Y010780D01*
X004697Y010780D01*
X004697Y011055D01*
X004682Y011110D01*
X004660Y011148D01*
X004715Y011204D01*
X004715Y011911D01*
X004675Y011951D01*
X004715Y011991D01*
X004715Y012698D01*
X004672Y012742D01*
X008886Y012742D01*
X008653Y012508D02*
X004715Y012508D01*
X004715Y012274D02*
X008418Y012274D01*
X008184Y012039D02*
X004715Y012039D01*
X004715Y011804D02*
X007949Y011804D01*
X007714Y011569D02*
X004715Y011569D01*
X004715Y011335D02*
X007480Y011335D01*
X007245Y011100D02*
X004684Y011100D01*
X004697Y010865D02*
X007010Y010865D01*
X006775Y010631D02*
X004697Y010631D01*
X004662Y010396D02*
X006541Y010396D01*
X006306Y010161D02*
X004715Y010161D01*
X004715Y009926D02*
X006071Y009926D01*
X005837Y009692D02*
X004715Y009692D01*
X004715Y009457D02*
X005602Y009457D01*
X005367Y009222D02*
X004715Y009222D01*
X004715Y008988D02*
X005132Y008988D01*
X004898Y008753D02*
X004715Y008753D01*
X004740Y007814D02*
X009754Y007814D01*
X009754Y007579D02*
X004715Y007579D01*
X003455Y007579D02*
X002201Y007579D01*
X002201Y007545D02*
X002169Y007467D01*
X003455Y007467D01*
X003455Y007974D01*
X003456Y007975D01*
X003285Y007975D01*
X003125Y008042D01*
X003002Y008165D01*
X002936Y008325D01*
X002936Y008369D01*
X002931Y008369D01*
X002771Y008436D01*
X002648Y008558D01*
X002582Y008719D01*
X002582Y008892D01*
X002648Y009052D01*
X002771Y009175D01*
X002931Y009242D01*
X003105Y009242D01*
X003265Y009175D01*
X003359Y009082D01*
X003455Y009082D01*
X003455Y009549D01*
X003495Y009589D01*
X003455Y009629D01*
X003455Y010336D01*
X003510Y010391D01*
X003488Y010430D01*
X003473Y010485D01*
X003473Y010760D01*
X004075Y010760D01*
X004075Y010780D01*
X003473Y010780D01*
X003473Y011055D01*
X003488Y011110D01*
X003510Y011148D01*
X003455Y011204D01*
X003455Y011225D01*
X002551Y011225D01*
X002525Y011200D01*
X002552Y011153D01*
X002567Y011098D01*
X002567Y010784D01*
X002103Y010784D01*
X002103Y010764D01*
X002567Y010764D01*
X002567Y010450D01*
X002552Y010394D01*
X002523Y010345D01*
X002483Y010304D01*
X002433Y010275D01*
X002377Y010260D01*
X002103Y010260D01*
X002103Y010764D01*
X002083Y010764D01*
X002083Y010260D01*
X001808Y010260D01*
X001753Y010275D01*
X001739Y010283D01*
X001698Y010242D01*
X001601Y010242D01*
X001601Y010065D01*
X001639Y010065D01*
X001719Y009986D01*
X001798Y010065D01*
X002466Y010065D01*
X002605Y009927D01*
X002605Y009259D01*
X002466Y009120D01*
X002031Y009120D01*
X001953Y009043D01*
X001875Y008965D01*
X001774Y008923D01*
X000955Y008923D01*
X000931Y008933D01*
X000931Y008212D01*
X001756Y008212D01*
X001960Y008127D01*
X002117Y007971D01*
X002201Y007766D01*
X002201Y007545D01*
X002182Y007814D02*
X003455Y007814D01*
X003118Y008049D02*
X002039Y008049D01*
X002688Y008518D02*
X000931Y008518D01*
X000931Y008283D02*
X002953Y008283D01*
X002582Y008753D02*
X000931Y008753D01*
X001898Y008988D02*
X002621Y008988D01*
X002568Y009222D02*
X002885Y009222D01*
X003151Y009222D02*
X003455Y009222D01*
X003455Y009457D02*
X002605Y009457D01*
X002605Y009692D02*
X003455Y009692D01*
X003455Y009926D02*
X002605Y009926D01*
X002552Y010396D02*
X003507Y010396D01*
X003473Y010631D02*
X002567Y010631D01*
X002567Y010865D02*
X003473Y010865D01*
X003485Y011100D02*
X002566Y011100D01*
X002103Y010631D02*
X002083Y010631D01*
X002083Y010396D02*
X002103Y010396D01*
X001601Y010161D02*
X003455Y010161D01*
X003424Y006915D02*
X002140Y006915D01*
X002201Y006766D01*
X002201Y006545D01*
X002117Y006341D01*
X001960Y006184D01*
X001868Y006146D01*
X001927Y006116D01*
X001996Y006066D01*
X002055Y006006D01*
X002105Y005938D01*
X002144Y005862D01*
X002170Y005782D01*
X002183Y005698D01*
X002183Y005656D01*
X001325Y005656D01*
X001325Y005656D01*
X002183Y005656D01*
X002183Y005613D01*
X002170Y005530D01*
X002144Y005449D01*
X002105Y005374D01*
X002055Y005305D01*
X001996Y005245D01*
X001927Y005195D01*
X001868Y005165D01*
X001960Y005127D01*
X002117Y004971D01*
X002126Y004948D01*
X002352Y004948D01*
X002700Y005295D01*
X002700Y005428D01*
X002766Y005588D01*
X002889Y005711D01*
X003049Y005777D01*
X003223Y005777D01*
X003383Y005711D01*
X003506Y005588D01*
X003572Y005428D01*
X003572Y005254D01*
X003506Y005094D01*
X003383Y004971D01*
X003223Y004905D01*
X003090Y004905D01*
X002701Y004515D01*
X002623Y004437D01*
X002522Y004395D01*
X002139Y004395D01*
X002117Y004341D01*
X001960Y004184D01*
X001891Y004156D01*
X001960Y004127D01*
X002117Y003971D01*
X002201Y003766D01*
X002201Y003545D01*
X002160Y003447D01*
X002220Y003506D01*
X002380Y003572D01*
X002554Y003572D01*
X002714Y003506D01*
X002747Y003472D01*
X005124Y003472D01*
X005124Y004061D01*
X005165Y004101D01*
X005157Y004115D01*
X005142Y004170D01*
X005142Y004445D01*
X005646Y004445D01*
X005646Y004465D01*
X005646Y004929D01*
X005332Y004929D01*
X005276Y004914D01*
X005227Y004885D01*
X005186Y004845D01*
X005157Y004795D01*
X005142Y004740D01*
X005142Y004465D01*
X005646Y004465D01*
X005666Y004465D01*
X006169Y004465D01*
X006169Y004740D01*
X006154Y004795D01*
X006126Y004845D01*
X006085Y004885D01*
X006035Y004914D01*
X005980Y004929D01*
X005666Y004929D01*
X005666Y004465D01*
X005666Y004445D01*
X006169Y004445D01*
X006169Y004361D01*
X006473Y004665D01*
X006499Y004691D01*
X006068Y005123D01*
X004880Y005123D01*
X004757Y005174D01*
X004662Y005268D01*
X003727Y006204D01*
X003679Y006204D01*
X003519Y006270D01*
X003396Y006393D01*
X003330Y006553D01*
X003330Y006727D01*
X003396Y006887D01*
X003424Y006915D01*
X003391Y006875D02*
X002156Y006875D01*
X002201Y006640D02*
X003330Y006640D01*
X003391Y006406D02*
X002143Y006406D01*
X001928Y006171D02*
X003760Y006171D01*
X003994Y005936D02*
X002106Y005936D01*
X002183Y005701D02*
X002880Y005701D01*
X002716Y005467D02*
X002149Y005467D01*
X001977Y005232D02*
X002637Y005232D01*
X002402Y004997D02*
X002090Y004997D01*
X002714Y004528D02*
X005142Y004528D01*
X005148Y004763D02*
X002948Y004763D01*
X003409Y004997D02*
X006193Y004997D01*
X006163Y004763D02*
X006428Y004763D01*
X006336Y004528D02*
X006169Y004528D01*
X005666Y004528D02*
X005646Y004528D01*
X005646Y004763D02*
X005666Y004763D01*
X005142Y004293D02*
X002069Y004293D01*
X002029Y004058D02*
X005124Y004058D01*
X005124Y003824D02*
X002177Y003824D01*
X002201Y003589D02*
X005124Y003589D01*
X005150Y002800D02*
X002747Y002800D01*
X002714Y002766D01*
X002554Y002700D01*
X002380Y002700D01*
X002220Y002766D01*
X002097Y002889D01*
X002031Y003049D01*
X002031Y003223D01*
X002053Y003277D01*
X001960Y003184D01*
X001756Y003099D01*
X001208Y003099D01*
X001208Y002432D01*
X001228Y002453D01*
X001546Y002585D01*
X001891Y002585D01*
X002209Y002453D01*
X002453Y002209D01*
X002585Y001891D01*
X002585Y001546D01*
X002453Y001228D01*
X002432Y001208D01*
X005653Y001208D01*
X005653Y001246D01*
X005263Y001246D01*
X005124Y001385D01*
X005124Y002092D01*
X005165Y002133D01*
X005157Y002146D01*
X005142Y002202D01*
X005142Y002477D01*
X005646Y002477D01*
X005646Y002496D01*
X005142Y002496D01*
X005142Y002771D01*
X005150Y002800D01*
X005142Y002650D02*
X001208Y002650D01*
X001208Y002885D02*
X002101Y002885D01*
X002031Y003120D02*
X001804Y003120D01*
X002247Y002415D02*
X005142Y002415D01*
X005148Y002181D02*
X002465Y002181D01*
X002562Y001946D02*
X005124Y001946D01*
X005124Y001711D02*
X002585Y001711D01*
X002556Y001476D02*
X005124Y001476D01*
X005653Y001242D02*
X002459Y001242D01*
X005646Y002231D02*
X005646Y002477D01*
X005666Y002477D01*
X005666Y002496D01*
X006169Y002496D01*
X006169Y002771D01*
X006161Y002800D01*
X006510Y002800D01*
X006634Y002851D01*
X006728Y002946D01*
X006779Y003069D01*
X006779Y003203D01*
X006728Y003326D01*
X006634Y003421D01*
X006510Y003472D01*
X006187Y003472D01*
X006187Y003627D01*
X006313Y003627D01*
X006437Y003678D01*
X006683Y003924D01*
X006770Y003837D01*
X007446Y003837D01*
X007563Y003954D01*
X007680Y003837D01*
X008356Y003837D01*
X008473Y003954D01*
X008590Y003837D01*
X009209Y003837D01*
X009240Y003806D01*
X009318Y003729D01*
X009420Y003687D01*
X009849Y003687D01*
X009849Y003353D01*
X009987Y003215D01*
X010104Y003215D01*
X010104Y002979D01*
X009987Y002979D01*
X009849Y002840D01*
X009849Y002133D01*
X009869Y002112D01*
X009851Y002094D01*
X009526Y002094D01*
X009402Y002043D01*
X009308Y001949D01*
X009256Y001825D01*
X009256Y001691D01*
X009308Y001568D01*
X009393Y001482D01*
X009308Y001397D01*
X009256Y001274D01*
X009256Y001140D01*
X009308Y001016D01*
X009367Y000957D01*
X009356Y000931D01*
X006430Y000931D01*
X006459Y000960D01*
X006525Y001120D01*
X006525Y001294D01*
X006472Y001422D01*
X006510Y001422D01*
X006634Y001473D01*
X006728Y001568D01*
X006779Y001691D01*
X006779Y001825D01*
X006728Y001949D01*
X006634Y002043D01*
X006510Y002094D01*
X006185Y002094D01*
X006146Y002133D01*
X006154Y002146D01*
X006169Y002202D01*
X006169Y002477D01*
X005666Y002477D01*
X005666Y002231D01*
X005646Y002231D01*
X005646Y002415D02*
X005666Y002415D01*
X006169Y002415D02*
X007073Y002415D01*
X007091Y002415D02*
X006443Y002415D01*
X006443Y002650D02*
X007144Y002650D01*
X007135Y002640D02*
X007106Y002591D01*
X007091Y002535D01*
X007091Y002172D01*
X007919Y002172D01*
X007919Y001975D01*
X007091Y001975D01*
X007091Y001612D01*
X007106Y001556D01*
X007135Y001506D01*
X007175Y001466D01*
X007225Y001437D01*
X007281Y001422D01*
X007919Y001422D01*
X007919Y001975D01*
X008116Y001975D01*
X008116Y001422D01*
X008755Y001422D01*
X008811Y001437D01*
X008860Y001466D01*
X008901Y001506D01*
X008930Y001556D01*
X008945Y001612D01*
X008945Y001975D01*
X008116Y001975D01*
X008116Y002172D01*
X007919Y002172D01*
X007919Y002725D01*
X007281Y002725D01*
X007225Y002710D01*
X007175Y002681D01*
X007135Y002640D01*
X007119Y002650D02*
X006169Y002650D01*
X006443Y002885D02*
X009593Y002885D01*
X009593Y003120D02*
X006443Y003120D01*
X006443Y003354D02*
X009593Y003354D01*
X009593Y003589D02*
X006443Y003589D01*
X006443Y003687D02*
X006443Y001444D01*
X006443Y001444D01*
X006507Y001290D01*
X006507Y001124D01*
X006443Y000970D01*
X006443Y000970D01*
X006443Y000931D01*
X009593Y000931D01*
X009593Y003687D01*
X006443Y003687D01*
X006583Y003824D02*
X009223Y003824D01*
X009589Y004239D02*
X009404Y004424D01*
X009404Y004590D01*
X009561Y004590D01*
X009722Y004656D01*
X009815Y004750D01*
X009869Y004750D01*
X009867Y004740D01*
X009867Y004465D01*
X010370Y004465D01*
X010370Y004590D01*
X010390Y004590D01*
X010390Y004465D01*
X010370Y004465D01*
X010370Y004445D01*
X009867Y004445D01*
X009867Y004239D01*
X009589Y004239D01*
X009535Y004293D02*
X009867Y004293D01*
X009867Y004528D02*
X009404Y004528D01*
X010370Y004528D02*
X010390Y004528D01*
X010390Y004465D02*
X010894Y004465D01*
X010894Y004740D01*
X010879Y004795D01*
X010850Y004845D01*
X010809Y004885D01*
X010765Y004911D01*
X010777Y004939D01*
X010777Y005113D01*
X010773Y005123D01*
X013345Y005123D01*
X013243Y005081D01*
X013121Y004958D01*
X013054Y004798D01*
X013054Y004624D01*
X013121Y004464D01*
X013243Y004341D01*
X013404Y004275D01*
X013577Y004275D01*
X013620Y004292D01*
X010912Y001584D01*
X010912Y002092D01*
X010891Y002112D01*
X010912Y002133D01*
X010912Y002840D01*
X010773Y002979D01*
X010656Y002979D01*
X010656Y003215D01*
X010773Y003215D01*
X010912Y003353D01*
X010912Y004061D01*
X010871Y004101D01*
X010879Y004115D01*
X010894Y004170D01*
X010894Y004445D01*
X010390Y004445D01*
X010390Y004465D01*
X010894Y004528D02*
X013094Y004528D01*
X013054Y004763D02*
X010887Y004763D01*
X010777Y004997D02*
X013160Y004997D01*
X013359Y004293D02*
X010894Y004293D01*
X010912Y004058D02*
X013386Y004058D01*
X013151Y003824D02*
X010912Y003824D01*
X010912Y003589D02*
X012917Y003589D01*
X012682Y003354D02*
X010912Y003354D01*
X010656Y003120D02*
X012447Y003120D01*
X012212Y002885D02*
X010867Y002885D01*
X010912Y002650D02*
X011978Y002650D01*
X011743Y002415D02*
X010912Y002415D01*
X010912Y002181D02*
X011508Y002181D01*
X011274Y001946D02*
X010912Y001946D01*
X010912Y001711D02*
X011039Y001711D01*
X009849Y002181D02*
X008963Y002181D01*
X008945Y002181D02*
X009593Y002181D01*
X009593Y001946D02*
X008945Y001946D01*
X008963Y001946D02*
X009307Y001946D01*
X009256Y001711D02*
X008963Y001711D01*
X008945Y001711D02*
X009593Y001711D01*
X009593Y001476D02*
X008871Y001476D01*
X008897Y001476D02*
X009387Y001476D01*
X009256Y001242D02*
X006525Y001242D01*
X006507Y001242D02*
X009593Y001242D01*
X009593Y001007D02*
X006459Y001007D01*
X006478Y001007D02*
X009317Y001007D01*
X008824Y001404D02*
X008963Y001543D01*
X008963Y002604D01*
X008824Y002743D01*
X007211Y002743D01*
X007073Y002604D01*
X007073Y001543D01*
X007211Y001404D01*
X008824Y001404D01*
X008116Y001476D02*
X007919Y001476D01*
X007919Y001711D02*
X008116Y001711D01*
X008116Y001946D02*
X007919Y001946D01*
X007919Y002181D02*
X008116Y002181D01*
X008116Y002172D02*
X008116Y002725D01*
X008755Y002725D01*
X008811Y002710D01*
X008860Y002681D01*
X008901Y002640D01*
X008930Y002591D01*
X008945Y002535D01*
X008945Y002172D01*
X008116Y002172D01*
X008116Y002415D02*
X007919Y002415D01*
X007919Y002650D02*
X008116Y002650D01*
X008891Y002650D02*
X009593Y002650D01*
X009593Y002415D02*
X008945Y002415D01*
X008963Y002415D02*
X009849Y002415D01*
X009849Y002650D02*
X008917Y002650D01*
X009893Y002885D02*
X006667Y002885D01*
X006779Y003120D02*
X010104Y003120D01*
X009849Y003354D02*
X006700Y003354D01*
X006187Y003589D02*
X009849Y003589D01*
X007091Y002181D02*
X006443Y002181D01*
X006443Y001946D02*
X007091Y001946D01*
X007073Y001946D02*
X006729Y001946D01*
X006779Y001711D02*
X007073Y001711D01*
X007091Y001711D02*
X006443Y001711D01*
X006443Y001476D02*
X007165Y001476D01*
X007139Y001476D02*
X006637Y001476D01*
X007073Y002181D02*
X006163Y002181D01*
X004698Y005232D02*
X003563Y005232D01*
X003556Y005467D02*
X004464Y005467D01*
X004229Y005701D02*
X003392Y005701D01*
X011336Y011852D02*
X011429Y011759D01*
X012843Y011759D01*
X012692Y011821D01*
X012569Y011944D01*
X012503Y012104D01*
X012503Y012278D01*
X012569Y012438D01*
X012692Y012561D01*
X012852Y012627D01*
X012900Y012627D01*
X012785Y012742D01*
X011919Y012742D01*
X011919Y012577D01*
X011852Y012416D01*
X011730Y012294D01*
X011569Y012227D01*
X011396Y012227D01*
X011235Y012294D01*
X011113Y012416D01*
X011092Y012466D01*
X010996Y012466D01*
X010996Y012355D01*
X010394Y012355D01*
X010394Y012335D01*
X010996Y012335D01*
X010996Y012060D01*
X010981Y012005D01*
X010959Y011966D01*
X011006Y011919D01*
X011176Y011919D01*
X011336Y011852D01*
X011384Y011804D02*
X012733Y011804D01*
X012530Y012039D02*
X010990Y012039D01*
X010996Y012274D02*
X011284Y012274D01*
X011681Y012274D02*
X012503Y012274D01*
X012639Y012508D02*
X011890Y012508D01*
X011526Y014239D02*
X010210Y014239D01*
X010317Y014346D01*
X010383Y014506D01*
X010383Y014632D01*
X010773Y014632D01*
X010912Y014770D01*
X010912Y015478D01*
X010871Y015519D01*
X010879Y015532D01*
X010894Y015588D01*
X010894Y015862D01*
X010390Y015862D01*
X010390Y015882D01*
X010894Y015882D01*
X010894Y016157D01*
X010879Y016212D01*
X010850Y016262D01*
X010809Y016303D01*
X010760Y016331D01*
X010704Y016346D01*
X010390Y016346D01*
X010390Y015882D01*
X010370Y015882D01*
X010370Y015862D01*
X009867Y015862D01*
X009867Y015716D01*
X009719Y015716D01*
X009805Y015802D01*
X009867Y015951D01*
X009867Y015882D01*
X010370Y015882D01*
X010370Y016346D01*
X010056Y016346D01*
X010001Y016331D01*
X009951Y016303D01*
X009910Y016262D01*
X009882Y016212D01*
X009867Y016157D01*
X009867Y016148D01*
X009805Y016297D01*
X009682Y016419D01*
X009566Y016467D01*
X009563Y016476D01*
X009468Y016571D01*
X009345Y016622D01*
X009211Y016622D01*
X009087Y016571D01*
X008993Y016476D01*
X008942Y016353D01*
X008942Y016140D01*
X008943Y016136D01*
X008590Y016136D01*
X008473Y016018D01*
X008356Y016136D01*
X007680Y016136D01*
X007563Y016018D01*
X007446Y016136D01*
X006826Y016136D01*
X006795Y016167D01*
X006718Y016244D01*
X006616Y016286D01*
X006187Y016286D01*
X006187Y016620D01*
X006049Y016758D01*
X005932Y016758D01*
X005932Y016994D01*
X006049Y016994D01*
X006187Y017133D01*
X006187Y017840D01*
X006167Y017860D01*
X006187Y017881D01*
X006187Y017918D01*
X006510Y017918D01*
X006634Y017969D01*
X006728Y018064D01*
X006779Y018187D01*
X006779Y018321D01*
X006728Y018445D01*
X006663Y018510D01*
X006728Y018575D01*
X006779Y018699D01*
X006779Y018833D01*
X006767Y018863D01*
X009375Y018863D01*
X009375Y018512D01*
X009308Y018445D01*
X009256Y018321D01*
X009256Y018187D01*
X009308Y018064D01*
X009402Y017969D01*
X009526Y017918D01*
X009849Y017918D01*
X009849Y017881D01*
X009889Y017840D01*
X009882Y017827D01*
X009867Y017771D01*
X009867Y017496D01*
X010370Y017496D01*
X010370Y017477D01*
X009867Y017477D01*
X009867Y017202D01*
X009882Y017146D01*
X009910Y017097D01*
X009951Y017056D01*
X010001Y017027D01*
X010056Y017012D01*
X010370Y017012D01*
X010370Y017477D01*
X010390Y017477D01*
X010390Y017496D01*
X010894Y017496D01*
X010894Y017771D01*
X010879Y017827D01*
X010871Y017840D01*
X010912Y017881D01*
X010912Y018075D01*
X011169Y018075D01*
X011164Y018065D01*
X011164Y017892D01*
X011231Y017731D01*
X011353Y017609D01*
X011514Y017542D01*
X011646Y017542D01*
X013176Y016012D01*
X013278Y015970D01*
X013763Y015970D01*
X013763Y015932D01*
X013278Y015932D01*
X013176Y015890D01*
X013099Y015812D01*
X011526Y014239D01*
X011673Y014386D02*
X010334Y014386D01*
X010383Y014621D02*
X011907Y014621D01*
X012142Y014856D02*
X010912Y014856D01*
X010912Y015090D02*
X012377Y015090D01*
X012612Y015325D02*
X010912Y015325D01*
X010886Y015560D02*
X012846Y015560D01*
X013081Y015794D02*
X010894Y015794D01*
X010894Y016029D02*
X013159Y016029D01*
X012925Y016264D02*
X010848Y016264D01*
X010390Y016264D02*
X010370Y016264D01*
X010370Y016029D02*
X010390Y016029D01*
X009912Y016264D02*
X009819Y016264D01*
X009593Y016286D02*
X006443Y016286D01*
X006443Y019042D01*
X009593Y019042D01*
X009593Y016286D01*
X009593Y016499D02*
X006443Y016499D01*
X006443Y016733D02*
X009593Y016733D01*
X009593Y016968D02*
X006443Y016968D01*
X006074Y016733D02*
X012455Y016733D01*
X012690Y016499D02*
X009540Y016499D01*
X009015Y016499D02*
X006187Y016499D01*
X005932Y016968D02*
X012220Y016968D01*
X011986Y017203D02*
X010894Y017203D01*
X010894Y017202D02*
X010894Y017477D01*
X010390Y017477D01*
X010390Y017012D01*
X010704Y017012D01*
X010760Y017027D01*
X010809Y017056D01*
X010850Y017097D01*
X010879Y017146D01*
X010894Y017202D01*
X010894Y017437D02*
X011751Y017437D01*
X011290Y017672D02*
X010894Y017672D01*
X010912Y017907D02*
X011164Y017907D01*
X010390Y017437D02*
X010370Y017437D01*
X010370Y017203D02*
X010390Y017203D01*
X009867Y017203D02*
X006187Y017203D01*
X006187Y017437D02*
X007073Y017437D01*
X007091Y017438D02*
X007106Y017382D01*
X007135Y017332D01*
X007175Y017292D01*
X007225Y017263D01*
X007281Y017248D01*
X007919Y017248D01*
X007919Y017801D01*
X007091Y017801D01*
X007091Y017438D01*
X007091Y017437D02*
X006443Y017437D01*
X006443Y017203D02*
X009593Y017203D01*
X009593Y017437D02*
X008945Y017437D01*
X008945Y017438D02*
X008945Y017801D01*
X008116Y017801D01*
X008116Y017248D01*
X008755Y017248D01*
X008811Y017263D01*
X008860Y017292D01*
X008901Y017332D01*
X008930Y017382D01*
X008945Y017438D01*
X008963Y017437D02*
X009867Y017437D01*
X009867Y017672D02*
X008963Y017672D01*
X008945Y017672D02*
X009593Y017672D01*
X009593Y017907D02*
X008116Y017907D01*
X008116Y017998D02*
X008116Y017801D01*
X007919Y017801D01*
X007919Y017998D01*
X007091Y017998D01*
X007091Y018361D01*
X007106Y018417D01*
X007135Y018466D01*
X007175Y018507D01*
X007225Y018536D01*
X007281Y018551D01*
X007919Y018551D01*
X007919Y017998D01*
X008116Y017998D01*
X008116Y018551D01*
X008755Y018551D01*
X008811Y018536D01*
X008860Y018507D01*
X008901Y018466D01*
X008930Y018417D01*
X008945Y018361D01*
X008945Y017998D01*
X008116Y017998D01*
X008116Y018142D02*
X007919Y018142D01*
X007919Y017907D02*
X006443Y017907D01*
X006443Y018142D02*
X007091Y018142D01*
X007073Y018142D02*
X006760Y018142D01*
X007073Y017907D02*
X006187Y017907D01*
X006187Y017672D02*
X007073Y017672D01*
X007091Y017672D02*
X006443Y017672D01*
X007073Y017368D02*
X007211Y017230D01*
X008824Y017230D01*
X008963Y017368D01*
X008963Y018430D01*
X008824Y018569D01*
X007211Y018569D01*
X007073Y018430D01*
X007073Y017368D01*
X007919Y017437D02*
X008116Y017437D01*
X008116Y017672D02*
X007919Y017672D01*
X008963Y017907D02*
X009849Y017907D01*
X009593Y018142D02*
X008945Y018142D01*
X008963Y018142D02*
X009275Y018142D01*
X009279Y018376D02*
X008963Y018376D01*
X008941Y018376D02*
X009593Y018376D01*
X009593Y018611D02*
X006443Y018611D01*
X006443Y018376D02*
X007095Y018376D01*
X007073Y018376D02*
X006756Y018376D01*
X006743Y018611D02*
X009375Y018611D01*
X009375Y018846D02*
X006774Y018846D01*
X006443Y018846D02*
X009593Y018846D01*
X008116Y018376D02*
X007919Y018376D01*
X005869Y018727D02*
X005263Y018727D01*
X005124Y018588D01*
X005124Y018277D01*
X004357Y017509D01*
X004309Y017509D01*
X004149Y017443D01*
X004026Y017320D01*
X003960Y017160D01*
X003960Y016986D01*
X004026Y016826D01*
X004149Y016703D01*
X004309Y016637D01*
X004483Y016637D01*
X004643Y016703D01*
X004766Y016826D01*
X004832Y016986D01*
X004832Y017034D01*
X005124Y017326D01*
X005124Y017133D01*
X005263Y016994D01*
X005379Y016994D01*
X005379Y016758D01*
X005263Y016758D01*
X005124Y016620D01*
X005124Y015912D01*
X005165Y015871D01*
X005157Y015858D01*
X005142Y015803D01*
X005142Y015528D01*
X005646Y015528D01*
X005646Y015774D01*
X005666Y015774D01*
X005666Y015528D01*
X006169Y015528D01*
X006169Y015734D01*
X006447Y015734D01*
X006632Y015549D01*
X006632Y015126D01*
X006123Y015126D01*
X006126Y015128D01*
X006154Y015178D01*
X006169Y015233D01*
X006169Y015508D01*
X005666Y015508D01*
X005666Y015528D01*
X005646Y015528D01*
X005646Y015508D01*
X005142Y015508D01*
X005142Y015233D01*
X005157Y015178D01*
X005186Y015128D01*
X005227Y015087D01*
X005276Y015059D01*
X005332Y015044D01*
X005451Y015044D01*
X005443Y015037D01*
X005377Y014876D01*
X005377Y014703D01*
X005430Y014575D01*
X004047Y014575D01*
X003934Y014687D01*
X003774Y014753D01*
X003600Y014753D01*
X003440Y014687D01*
X003328Y014575D01*
X002724Y014575D01*
X001931Y015367D01*
X001931Y015966D01*
X001793Y016104D01*
X001763Y016104D01*
X001774Y016115D01*
X001828Y016190D01*
X001870Y016272D01*
X001899Y016361D01*
X001913Y016452D01*
X001913Y016498D01*
X001325Y016498D01*
X001325Y016104D01*
X001325Y016498D01*
X001325Y016498D01*
X001325Y016498D01*
X001913Y016498D01*
X001913Y016545D01*
X001899Y016636D01*
X001870Y016724D01*
X001828Y016806D01*
X001774Y016881D01*
X001708Y016947D01*
X001633Y017001D01*
X001551Y017043D01*
X001463Y017072D01*
X001371Y017086D01*
X001325Y017086D01*
X001279Y017086D01*
X001187Y017072D01*
X001099Y017043D01*
X001017Y017001D01*
X000942Y016947D01*
X000931Y016936D01*
X000931Y017892D01*
X000984Y017764D01*
X001228Y017520D01*
X001546Y017388D01*
X001891Y017388D01*
X002209Y017520D01*
X002453Y017764D01*
X002585Y018082D01*
X002585Y018426D01*
X002453Y018745D01*
X002209Y018988D01*
X002081Y019042D01*
X005831Y019042D01*
X005831Y018817D01*
X005869Y018727D01*
X005831Y018846D02*
X002352Y018846D01*
X002508Y018611D02*
X005147Y018611D01*
X005124Y018376D02*
X002585Y018376D01*
X002585Y018142D02*
X004989Y018142D01*
X004754Y017907D02*
X002512Y017907D01*
X002362Y017672D02*
X004520Y017672D01*
X004143Y017437D02*
X002010Y017437D01*
X001427Y017437D02*
X000931Y017437D01*
X000931Y017203D02*
X003977Y017203D01*
X003967Y016968D02*
X001679Y016968D01*
X001865Y016733D02*
X004119Y016733D01*
X004673Y016733D02*
X005238Y016733D01*
X005124Y016499D02*
X001913Y016499D01*
X001866Y016264D02*
X005124Y016264D01*
X005124Y016029D02*
X001868Y016029D01*
X001931Y015794D02*
X005142Y015794D01*
X005142Y015560D02*
X001931Y015560D01*
X001974Y015325D02*
X005142Y015325D01*
X005224Y015090D02*
X002208Y015090D01*
X002443Y014856D02*
X005377Y014856D01*
X005411Y014621D02*
X004000Y014621D01*
X003374Y014621D02*
X002678Y014621D01*
X001325Y016104D02*
X001325Y016104D01*
X001325Y016264D02*
X001325Y016264D01*
X001325Y016498D02*
X001325Y017086D01*
X001325Y016498D01*
X001325Y016498D01*
X001325Y016499D02*
X001325Y016499D01*
X001325Y016733D02*
X001325Y016733D01*
X001325Y016968D02*
X001325Y016968D01*
X000971Y016968D02*
X000931Y016968D01*
X000931Y017672D02*
X001076Y017672D01*
X004825Y016968D02*
X005379Y016968D01*
X005124Y017203D02*
X005001Y017203D01*
X006670Y016264D02*
X008942Y016264D01*
X008484Y016029D02*
X008462Y016029D01*
X007574Y016029D02*
X007552Y016029D01*
X006621Y015560D02*
X006169Y015560D01*
X006169Y015325D02*
X006632Y015325D01*
X005666Y015560D02*
X005646Y015560D01*
X009797Y015794D02*
X009867Y015794D01*
X019394Y009358D02*
X019744Y009708D01*
X019876Y009708D01*
X020037Y009774D01*
X020159Y009897D01*
X020223Y010050D01*
X020286Y009897D01*
X020409Y009774D01*
X020569Y009708D01*
X020701Y009708D01*
X021956Y008453D01*
X022057Y008411D01*
X022601Y008411D01*
X022601Y008239D01*
X022631Y008209D01*
X022619Y008165D01*
X022619Y007986D01*
X022619Y007876D01*
X022554Y007903D01*
X022380Y007903D01*
X022220Y007837D01*
X022205Y007822D01*
X019622Y007822D01*
X019569Y007950D01*
X019446Y008073D01*
X019286Y008139D01*
X019112Y008139D01*
X018952Y008073D01*
X018830Y007951D01*
X018738Y008042D01*
X018738Y008212D01*
X018695Y008256D01*
X018705Y008274D01*
X018720Y008330D01*
X018720Y008486D01*
X018168Y008486D01*
X018168Y008486D01*
X018720Y008486D01*
X018720Y008643D01*
X018705Y008699D01*
X018695Y008717D01*
X018704Y008726D01*
X019006Y008726D01*
X019117Y008615D01*
X019117Y008482D01*
X019184Y008322D01*
X019306Y008199D01*
X019467Y008133D01*
X019640Y008133D01*
X019800Y008199D01*
X019923Y008322D01*
X019990Y008482D01*
X019990Y008656D01*
X019923Y008816D01*
X019800Y008939D01*
X019640Y009005D01*
X019508Y009005D01*
X019354Y009159D01*
X019277Y009236D01*
X019244Y009250D01*
X019316Y009280D01*
X019394Y009358D01*
X019493Y009457D02*
X020952Y009457D01*
X020717Y009692D02*
X019728Y009692D01*
X020172Y009926D02*
X020274Y009926D01*
X021187Y009222D02*
X019291Y009222D01*
X019683Y008988D02*
X021421Y008988D01*
X021656Y008753D02*
X019949Y008753D01*
X019990Y008518D02*
X021891Y008518D01*
X022601Y008283D02*
X019885Y008283D01*
X019470Y008049D02*
X022619Y008049D01*
X022619Y007986D02*
X023062Y007986D01*
X023062Y007986D01*
X023062Y007618D01*
X022876Y007618D01*
X022903Y007554D01*
X022903Y007380D01*
X022837Y007220D01*
X022714Y007097D01*
X022554Y007031D01*
X022380Y007031D01*
X022220Y007097D01*
X022097Y007220D01*
X022076Y007269D01*
X019830Y007269D01*
X019830Y006428D01*
X019788Y006326D01*
X019710Y006248D01*
X019608Y006206D01*
X018684Y006206D01*
X018640Y006162D01*
X018651Y006136D01*
X018651Y005963D01*
X018585Y005802D01*
X018462Y005680D01*
X018456Y005677D01*
X021904Y005677D01*
X022027Y005626D01*
X022122Y005531D01*
X022329Y005324D01*
X023969Y006964D01*
X024093Y007016D01*
X024227Y007016D01*
X024605Y007016D01*
X024503Y007058D01*
X024380Y007180D01*
X024314Y007341D01*
X024314Y007514D01*
X024380Y007674D01*
X024503Y007797D01*
X024663Y007864D01*
X024796Y007864D01*
X025345Y008413D01*
X025290Y008436D01*
X025257Y008469D01*
X023889Y008469D01*
X023856Y008436D01*
X023695Y008369D01*
X023523Y008369D01*
X023523Y008239D01*
X023493Y008209D01*
X023505Y008165D01*
X023505Y007986D01*
X023062Y007986D01*
X023062Y007618D01*
X023316Y007618D01*
X023371Y007633D01*
X023421Y007662D01*
X023462Y007702D01*
X023490Y007752D01*
X023505Y007808D01*
X023505Y007986D01*
X023062Y007986D01*
X022619Y007986D01*
X023062Y007986D02*
X023062Y007986D01*
X023062Y007986D01*
X023062Y007814D02*
X023062Y007814D01*
X023505Y007814D02*
X024544Y007814D01*
X024981Y008049D02*
X023505Y008049D01*
X023523Y008283D02*
X025216Y008283D01*
X024341Y007579D02*
X022892Y007579D01*
X022888Y007344D02*
X024314Y007344D01*
X024451Y007110D02*
X022727Y007110D01*
X022207Y007110D02*
X019830Y007110D01*
X019830Y006875D02*
X023880Y006875D01*
X023645Y006640D02*
X019830Y006640D01*
X019820Y006406D02*
X023410Y006406D01*
X023176Y006171D02*
X018649Y006171D01*
X018640Y005936D02*
X022941Y005936D01*
X022706Y005701D02*
X018484Y005701D01*
X017557Y005005D02*
X021698Y005005D01*
X021873Y004829D01*
X021873Y004782D01*
X021939Y004621D01*
X022062Y004498D01*
X022222Y004432D01*
X022396Y004432D01*
X022556Y004498D01*
X022679Y004621D01*
X022745Y004782D01*
X022745Y004790D01*
X024299Y006343D01*
X024318Y006343D01*
X024314Y006333D01*
X024314Y006159D01*
X024380Y005999D01*
X024503Y005876D01*
X024663Y005810D01*
X024837Y005810D01*
X024997Y005876D01*
X025052Y005931D01*
X025534Y005931D01*
X025534Y005807D01*
X025266Y005538D01*
X024144Y005538D01*
X024043Y005496D01*
X023806Y005260D01*
X023729Y005182D01*
X023687Y005081D01*
X023687Y004815D01*
X023593Y004722D01*
X023527Y004561D01*
X023527Y004388D01*
X023593Y004228D01*
X023716Y004105D01*
X023876Y004038D01*
X023981Y004038D01*
X023981Y003984D01*
X020891Y003984D01*
X020895Y003994D01*
X020895Y004168D01*
X020829Y004328D01*
X020706Y004451D01*
X020546Y004517D01*
X020372Y004517D01*
X020212Y004451D01*
X020118Y004357D01*
X016982Y004357D01*
X017089Y004464D01*
X017155Y004624D01*
X017155Y004798D01*
X017089Y004958D01*
X016966Y005081D01*
X016864Y005123D01*
X017367Y005123D01*
X017434Y005056D01*
X017557Y005005D01*
X017049Y004997D02*
X021705Y004997D01*
X021881Y004763D02*
X017155Y004763D01*
X017115Y004528D02*
X022033Y004528D01*
X022586Y004528D02*
X023527Y004528D01*
X023566Y004293D02*
X020843Y004293D01*
X020895Y004058D02*
X023828Y004058D01*
X023634Y004763D02*
X022738Y004763D01*
X022953Y004997D02*
X023687Y004997D01*
X023778Y005232D02*
X023188Y005232D01*
X023423Y005467D02*
X024013Y005467D01*
X023657Y005701D02*
X025429Y005701D01*
X024443Y005936D02*
X023892Y005936D01*
X024127Y006171D02*
X024314Y006171D01*
X022472Y005467D02*
X022186Y005467D01*
X025085Y004238D02*
X025085Y003827D01*
X025336Y003827D01*
X025369Y003860D01*
X025530Y003927D01*
X025703Y003927D01*
X025863Y003860D01*
X025986Y003737D01*
X026053Y003577D01*
X026053Y003404D01*
X025986Y003243D01*
X025863Y003121D01*
X025703Y003054D01*
X025530Y003054D01*
X025369Y003121D01*
X025336Y003154D01*
X024983Y003154D01*
X024890Y003115D01*
X024890Y002979D01*
X024946Y002979D01*
X025085Y002840D01*
X025085Y002133D01*
X025044Y002092D01*
X025052Y002078D01*
X025067Y002023D01*
X025067Y001748D01*
X024563Y001748D01*
X024563Y001729D01*
X025067Y001729D01*
X025067Y001454D01*
X025052Y001398D01*
X025023Y001349D01*
X024983Y001308D01*
X024933Y001279D01*
X024877Y001264D01*
X024563Y001264D01*
X024563Y001729D01*
X024544Y001729D01*
X024544Y001264D01*
X024229Y001264D01*
X024174Y001279D01*
X024124Y001308D01*
X024084Y001349D01*
X024055Y001398D01*
X024040Y001454D01*
X024040Y001729D01*
X024543Y001729D01*
X024543Y001748D01*
X024040Y001748D01*
X024040Y002023D01*
X024055Y002078D01*
X024063Y002092D01*
X024022Y002133D01*
X024022Y002840D01*
X024160Y002979D01*
X024217Y002979D01*
X024217Y002997D01*
X024127Y003087D01*
X024032Y003182D01*
X023981Y003305D01*
X023981Y003312D01*
X023220Y003312D01*
X023257Y003223D01*
X023257Y003049D01*
X023191Y002889D01*
X023068Y002766D01*
X022908Y002700D01*
X022734Y002700D01*
X022574Y002766D01*
X022480Y002860D01*
X022345Y002860D01*
X022325Y002810D01*
X022202Y002687D01*
X022042Y002621D01*
X021935Y002621D01*
X021935Y002133D01*
X021894Y002092D01*
X021902Y002078D01*
X021917Y002023D01*
X021917Y001748D01*
X021414Y001748D01*
X021414Y001729D01*
X021917Y001729D01*
X021917Y001454D01*
X021902Y001398D01*
X021874Y001349D01*
X021833Y001308D01*
X021783Y001279D01*
X021728Y001264D01*
X021414Y001264D01*
X021414Y001729D01*
X021394Y001729D01*
X020890Y001729D01*
X020890Y001454D01*
X020905Y001398D01*
X020934Y001349D01*
X020975Y001308D01*
X021024Y001279D01*
X021080Y001264D01*
X021394Y001264D01*
X021394Y001729D01*
X021394Y001748D01*
X020890Y001748D01*
X020890Y002023D01*
X020905Y002078D01*
X020913Y002092D01*
X020872Y002133D01*
X020872Y002647D01*
X020502Y003017D01*
X019961Y003017D01*
X019990Y002947D01*
X019990Y002774D01*
X019923Y002613D01*
X019800Y002491D01*
X019640Y002424D01*
X019508Y002424D01*
X018765Y001681D01*
X018663Y001639D01*
X018467Y001639D01*
X018467Y000931D01*
X028915Y000931D01*
X028787Y000984D01*
X028543Y001228D01*
X028412Y001546D01*
X028412Y001891D01*
X028543Y002209D01*
X028787Y002453D01*
X029105Y002585D01*
X029450Y002585D01*
X029768Y002453D01*
X030012Y002209D01*
X030065Y002081D01*
X030065Y003687D01*
X029183Y003687D01*
X029082Y003729D01*
X029004Y003806D01*
X028573Y004238D01*
X025085Y004238D01*
X025085Y004058D02*
X028752Y004058D01*
X028987Y003824D02*
X025900Y003824D01*
X026048Y003589D02*
X030065Y003589D01*
X030065Y003354D02*
X026032Y003354D01*
X025861Y003120D02*
X030065Y003120D01*
X030065Y002885D02*
X025040Y002885D01*
X025085Y002650D02*
X030065Y002650D01*
X030065Y002415D02*
X029806Y002415D01*
X030024Y002181D02*
X030065Y002181D01*
X028750Y002415D02*
X025085Y002415D01*
X025085Y002181D02*
X028532Y002181D01*
X028434Y001946D02*
X025067Y001946D01*
X025067Y001711D02*
X028412Y001711D01*
X028441Y001476D02*
X025067Y001476D01*
X024563Y001476D02*
X024544Y001476D01*
X024544Y001711D02*
X024563Y001711D01*
X024563Y001748D02*
X024544Y001748D01*
X024544Y001994D01*
X024563Y001994D01*
X024563Y001748D01*
X024544Y001946D02*
X024563Y001946D01*
X024040Y001946D02*
X021917Y001946D01*
X021917Y001711D02*
X024040Y001711D01*
X024040Y001476D02*
X021917Y001476D01*
X021414Y001476D02*
X021394Y001476D01*
X021394Y001711D02*
X021414Y001711D01*
X021414Y001748D02*
X021394Y001748D01*
X021394Y001994D01*
X021414Y001994D01*
X021414Y001748D01*
X021414Y001946D02*
X021394Y001946D01*
X021935Y002181D02*
X024022Y002181D01*
X024022Y002415D02*
X021935Y002415D01*
X022112Y002650D02*
X024022Y002650D01*
X024066Y002885D02*
X023187Y002885D01*
X023257Y003120D02*
X024094Y003120D01*
X024900Y003120D02*
X025372Y003120D01*
X028538Y001242D02*
X018467Y001242D01*
X018467Y001476D02*
X020890Y001476D01*
X020890Y001711D02*
X018795Y001711D01*
X019029Y001946D02*
X020890Y001946D01*
X020872Y002181D02*
X019264Y002181D01*
X019499Y002415D02*
X020872Y002415D01*
X020869Y002650D02*
X019938Y002650D01*
X019990Y002885D02*
X020634Y002885D01*
X018467Y001007D02*
X028765Y001007D01*
X018928Y008049D02*
X018738Y008049D01*
X018708Y008283D02*
X019222Y008283D01*
X019117Y008518D02*
X018720Y008518D01*
X018168Y008486D02*
X018168Y008486D01*
X017615Y008486D01*
X018168Y008486D01*
X020321Y011804D02*
X020613Y011804D01*
M02*
