G75*
G70*
%OFA0B0*%
%FSLAX24Y24*%
%IPPOS*%
%LPD*%
%AMOC8*
5,1,8,0,0,1.08239X$1,22.5*
%
%ADD10C,0.1360*%
%ADD11C,0.0740*%
%ADD12R,0.0336X0.0848*%
%ADD13R,0.1360X0.0809*%
%ADD14R,0.0691X0.0612*%
%ADD15OC8,0.0740*%
%ADD16R,0.0840X0.0840*%
%ADD17C,0.0840*%
D10*
X001719Y001719D03*
X016286Y003294D03*
X029278Y001719D03*
X016286Y016679D03*
X029278Y018254D03*
X001719Y018254D03*
D11*
X001645Y007656D02*
X001005Y007656D01*
X001005Y006656D02*
X001645Y006656D01*
X001645Y005656D02*
X001005Y005656D01*
X001005Y004656D02*
X001645Y004656D01*
X001645Y003656D02*
X001005Y003656D01*
D12*
X004475Y008129D03*
X004975Y008129D03*
X005475Y008129D03*
X005975Y008129D03*
X006475Y008129D03*
X006975Y008129D03*
X007475Y008129D03*
X007975Y008129D03*
X008475Y008129D03*
X008975Y008129D03*
X009475Y008129D03*
X009975Y008129D03*
X009975Y011893D03*
X009475Y011893D03*
X008975Y011893D03*
X008475Y011893D03*
X007975Y011893D03*
X007475Y011893D03*
X006975Y011893D03*
X006475Y011893D03*
X005975Y011893D03*
X005475Y011893D03*
X004975Y011893D03*
X004475Y011893D03*
X022197Y011893D03*
X022697Y011893D03*
X023197Y011893D03*
X023697Y011893D03*
X024197Y011893D03*
X024697Y011893D03*
X025197Y011893D03*
X025697Y011893D03*
X026197Y011893D03*
X026697Y011893D03*
X027197Y011893D03*
X027697Y011893D03*
X027697Y008129D03*
X027197Y008129D03*
X026697Y008129D03*
X026197Y008129D03*
X025697Y008129D03*
X025197Y008129D03*
X024697Y008129D03*
X024197Y008129D03*
X023697Y008129D03*
X023197Y008129D03*
X022697Y008129D03*
X022197Y008129D03*
D13*
X026522Y004002D03*
X026522Y001797D03*
X005262Y001797D03*
X005262Y004002D03*
X005262Y015971D03*
X005262Y018175D03*
X026522Y018175D03*
X026522Y015971D03*
D14*
X024553Y015872D03*
X024553Y015124D03*
X022979Y015124D03*
X022979Y015872D03*
X022979Y017486D03*
X022979Y018234D03*
X024553Y018234D03*
X024553Y017486D03*
X021404Y017486D03*
X021404Y018234D03*
X018254Y012723D03*
X018254Y011975D03*
X014317Y011975D03*
X014317Y012723D03*
X008805Y015124D03*
X008805Y015872D03*
X007231Y015872D03*
X007231Y015124D03*
X007231Y017486D03*
X007231Y018234D03*
X008805Y018234D03*
X008805Y017486D03*
X010380Y017486D03*
X010380Y018234D03*
X014317Y007998D03*
X014317Y007250D03*
X018254Y007250D03*
X018254Y007998D03*
X022979Y004849D03*
X022979Y004101D03*
X024553Y004101D03*
X024553Y004849D03*
X024553Y002486D03*
X024553Y001738D03*
X022979Y001738D03*
X022979Y002486D03*
X021404Y002486D03*
X021404Y001738D03*
X010380Y001738D03*
X010380Y002486D03*
X008805Y002486D03*
X008805Y001738D03*
X007231Y001738D03*
X007231Y002486D03*
X007231Y004101D03*
X007231Y004849D03*
X008805Y004849D03*
X008805Y004101D03*
D15*
X001325Y013136D03*
D16*
X001325Y015498D03*
X014711Y018648D03*
X029671Y013530D03*
X029671Y004475D03*
X017860Y001325D03*
D17*
X016860Y001325D03*
X015860Y001325D03*
X014860Y001325D03*
X029671Y005475D03*
X029671Y006475D03*
X029671Y007475D03*
X029671Y008475D03*
X029671Y009475D03*
X029671Y010475D03*
X029671Y011475D03*
X029671Y014530D03*
X029671Y015530D03*
X017711Y018648D03*
X016711Y018648D03*
X015711Y018648D03*
X001325Y016498D03*
M02*
